<svg width="110" height="110" viewBox="0 0 110 110" fill="none" xmlns="http://www.w3.org/2000/svg">
    <path d="M44.4753 64.3243C42.6915 61.8434 41.6065 59.2261 41.6065 56.5406C41.6065 53.8599 42.6915 51.2377 44.4753 48.7568C45.9562 46.7 49.172 43.3905 52.9498 40.0372C53.116 39.891 53.1111 39.6278 52.94 39.4914C50.1641 37.2347 47.4663 35.3338 45.5554 34.476C40.4238 32.1755 32.6091 34.7295 32.6091 40.9633V72.1276C32.6091 78.3711 40.9663 80.93 45.6336 78.5271C47.3442 77.6498 50.0908 75.5637 52.9645 73.1657C53.1306 73.0244 53.1355 72.7709 52.9791 72.6247C51.5521 71.3331 45.5945 65.884 44.4753 64.3243Z" fill="white"/>
    <path d="M65.691 34.476C70.8226 32.1755 78.6373 34.7295 78.6373 40.9633V72.1276C78.6373 78.3711 70.2801 80.93 65.6128 78.5271C60.9455 76.1242 48.5368 64.7337 46.9631 62.5453C44.1432 58.6217 44.1432 54.4594 46.9631 50.5407C49.783 46.622 60.5594 36.7814 65.691 34.476Z" fill="white"/>
    <path d="M54.8606 103.487C27.9661 103.487 6.08594 81.666 6.08594 54.8444C6.08594 28.0229 27.9661 6.1972 54.8606 6.1972C81.7551 6.1972 103.635 28.018 103.635 54.8396C103.635 81.6611 81.76 103.487 54.8606 103.487ZM54.8606 15.6625C33.1955 15.6625 15.5721 33.2381 15.5721 54.8444C15.5721 76.4508 33.1955 94.0264 54.8606 94.0264C76.5257 94.0264 94.1491 76.4508 94.1491 54.8444C94.1491 33.2381 76.5257 15.6625 54.8606 15.6625Z" fill="white"/>
</svg>
