<svg width="64" height="64" viewBox="0 0 64 64" fill="none" xmlns="http://www.w3.org/2000/svg">
<circle fill="#ffffff" cx="32" cy="32" r="32" />
    <g transform="translate(14.5,14.5) scale(0.625)">
<path d="M14.4366 37.5288C12.2664 34.495 10.944 31.2911 10.944 28.0108C10.944 24.7304 12.2664 21.5266 14.4366 18.4927C16.2337 15.9772 20.1501 11.9235 24.7447 7.82734C24.9482 7.64888 24.9397 7.32594 24.7278 7.15598C21.3539 4.40253 18.0732 2.06551 15.742 1.02022C9.51134 -1.79272 0 1.32615 0 8.95761V47.0809C0 54.7209 10.1726 57.8482 15.8438 54.9078C17.9207 53.8285 21.2691 51.2791 24.7617 48.3472C24.9651 48.1772 24.9736 47.8628 24.7787 47.6843C23.0493 46.1036 15.8014 39.4325 14.4366 37.5288Z" fill="#00B5E2"/>
<path d="M40.2495 1.02052C46.4972 -1.79241 56 1.32646 56 8.95791V47.0812C56 54.7212 45.8275 57.8485 40.1563 54.9081C34.4766 51.9677 19.3788 38.039 17.463 35.3621C14.0382 30.5605 14.0382 25.4701 17.463 20.677C20.8962 15.8755 34.0103 3.84195 40.2495 1.02052Z" fill="#48D597"/>
    </g>
</svg>
