<svg width="1440" height="584" viewBox="0 0 1440 584" fill="none" xmlns="http://www.w3.org/2000/svg">
    <path d="M16.7527 13.1343C36.6979 4.47187 56.9413 24.7153 48.2788 44.6604C45.6341 50.7498 45.6341 57.6634 48.2788 63.7528C56.9412 83.6979 36.6978 103.941 16.7527 95.2788C10.6634 92.6341 3.74972 92.6341 -2.33964 95.2788C-22.2848 103.941 -42.5282 83.6979 -33.8657 63.7528C-31.221 57.6634 -31.221 50.7498 -33.8657 44.6604C-42.5282 24.7153 -22.2848 4.47187 -2.33964 13.1343C3.74972 15.779 10.6634 15.779 16.7527 13.1343Z" fill="#FFF8F5"/>
    <circle cx="165.62" cy="54.2066" r="43.3653" stroke="#FFF8F5" stroke-width="8.67305"/>
    <path d="M152.53 33.1896C157.215 21.3116 174.025 21.3116 178.709 33.1896C180.14 36.816 183.01 39.6866 186.637 41.1168C198.515 45.8014 198.515 62.6117 186.637 67.2964C183.01 68.7266 180.14 71.5972 178.709 75.2236C174.025 87.1016 157.215 87.1016 152.53 75.2236C151.1 71.5972 148.229 68.7266 144.603 67.2964C132.725 62.6117 132.725 45.8014 144.603 41.1168C148.229 39.6866 151.1 36.816 152.53 33.1896Z" fill="#FFF8F5"/>
    <circle cx="324.033" cy="54.2066" r="43.3653" stroke="#FFF8F5" stroke-width="8.67305"/>
    <path d="M319.423 30.8884C321.472 27.3398 326.594 27.3398 328.643 30.8884L338.91 48.6714L349.177 66.4544C351.226 70.0029 348.665 74.4386 344.567 74.4386H324.033H303.499C299.401 74.4386 296.841 70.0029 298.889 66.4544L309.156 48.6714L319.423 30.8884Z" fill="#FFF8F5"/>
    <circle cx="482.446" cy="54.2066" r="43.3653" stroke="#FFF8F5" stroke-width="8.67305"/>
    <path d="M472.086 30.4205C477.774 24.6175 487.118 24.6175 492.806 30.4205L499.452 37.2011L506.232 43.8468C512.035 49.5344 512.035 58.8789 506.232 64.5665L499.452 71.2121L492.806 77.9927C487.118 83.7958 477.774 83.7958 472.086 77.9927L465.441 71.2121L458.66 64.5665C452.857 58.8789 452.857 49.5344 458.66 43.8468L465.441 37.2011L472.086 30.4205Z" fill="#FFF8F5"/>
    <circle cx="640.859" cy="54.2066" r="43.3653" stroke="#FFF8F5" stroke-width="8.67305"/>
    <path d="M639.688 24.3247C640.416 23.9166 641.303 23.9166 642.031 24.3247L647.441 27.3598C647.79 27.5556 648.183 27.6607 648.583 27.6657L654.786 27.7425C655.62 27.7529 656.389 28.1966 656.815 28.9137L659.983 34.2475C660.187 34.5915 660.475 34.8789 660.819 35.0832L666.152 38.2514C666.87 38.6774 667.313 39.4459 667.324 40.28L667.4 46.4833C667.405 46.8834 667.511 47.2758 667.706 47.6248L670.741 53.0354C671.149 53.7629 671.149 54.6504 670.741 55.3778L667.706 60.7885C667.511 61.1374 667.405 61.5299 667.4 61.93L667.324 68.1333C667.313 68.9674 666.87 69.7359 666.152 70.1619L660.819 73.3301C660.475 73.5344 660.187 73.8217 659.983 74.1658L656.815 79.4996C656.389 80.2167 655.62 80.6604 654.786 80.6708L648.583 80.7476C648.183 80.7525 647.79 80.8577 647.441 81.0535L642.031 84.0886C641.303 84.4967 640.416 84.4967 639.688 84.0886L634.278 81.0535C633.929 80.8577 633.536 80.7525 633.136 80.7476L626.933 80.6708C626.099 80.6604 625.33 80.2167 624.904 79.4996L621.736 74.1658C621.532 73.8217 621.244 73.5344 620.9 73.3301L615.567 70.1619C614.849 69.7359 614.406 68.9674 614.395 68.1333L614.319 61.93C614.314 61.5299 614.208 61.1375 614.013 60.7885L610.978 55.3778C610.569 54.6504 610.569 53.7629 610.978 53.0354L614.013 47.6248C614.208 47.2758 614.314 46.8834 614.319 46.4833L614.395 40.28C614.406 39.4459 614.849 38.6774 615.567 38.2514L620.9 35.0832C621.244 34.8789 621.532 34.5915 621.736 34.2475L624.904 28.9137C625.33 28.1966 626.099 27.7529 626.933 27.7425L633.136 27.6657C633.536 27.6607 633.929 27.5556 634.278 27.3598L639.688 24.3247Z" fill="#FFF8F5"/>
    <rect x="788.475" y="-1.93848" width="94.6707" height="64.1317" rx="32.0659" transform="rotate(45 788.475 -1.93848)" fill="#FFF8F5"/>
    <path d="M956.148 6.97006C957.103 6.43446 958.268 6.43446 959.223 6.97006L968.192 12.0011C968.65 12.2581 969.165 12.3961 969.69 12.4026L979.973 12.53C981.067 12.5435 982.076 13.1259 982.635 14.0672L987.887 22.9086C988.155 23.3601 988.532 23.7372 988.984 24.0054L997.825 29.2571C998.766 29.8162 999.349 30.8249 999.362 31.9196L999.49 42.2023C999.496 42.7274 999.634 43.2426 999.891 43.7006L1004.92 52.6694C1005.46 53.6242 1005.46 54.789 1004.92 55.7438L999.891 64.7126C999.634 65.1706 999.496 65.6857 999.49 66.2108L999.362 76.4936C999.349 77.5883 998.766 78.597 997.825 79.1561L988.984 84.4077C988.532 84.6759 988.155 85.053 987.887 85.5046L982.635 94.346C982.076 95.2872 981.067 95.8696 979.973 95.8832L969.69 96.0105C969.165 96.0171 968.65 96.1551 968.192 96.412L959.223 101.443C958.268 101.979 957.103 101.979 956.148 101.443L947.18 96.412C946.722 96.1551 946.206 96.0171 945.681 96.0105L935.399 95.8832C934.304 95.8696 933.295 95.2872 932.736 94.346L927.484 85.5046C927.216 85.053 926.839 84.6759 926.388 84.4077L917.546 79.1561C916.605 78.597 916.023 77.5883 916.009 76.4936L915.882 66.2108C915.875 65.6857 915.737 65.1706 915.48 64.7126L910.449 55.7438C909.913 54.789 909.913 53.6242 910.449 52.6694L915.48 43.7006C915.737 43.2426 915.875 42.7274 915.882 42.2023L916.009 31.9196C916.023 30.8249 916.605 29.8162 917.546 29.2571L926.388 24.0054C926.839 23.7372 927.216 23.3601 927.484 22.9086L932.736 14.0671C933.295 13.1259 934.304 12.5435 935.399 12.53L945.681 12.4026C946.206 12.3961 946.722 12.2581 947.18 12.0011L956.148 6.97006Z" fill="#FFF8F5"/>
    <mask id="path-12-inside-1" fill="white">
        <path d="M1114.56 6.97006C1115.52 6.43446 1116.68 6.43446 1117.64 6.97006L1126.6 12.0011C1127.06 12.2581 1127.58 12.3961 1128.1 12.4026L1138.39 12.53C1139.48 12.5435 1140.49 13.1259 1141.05 14.0672L1146.3 22.9086C1146.57 23.3601 1146.95 23.7372 1147.4 24.0054L1156.24 29.2571C1157.18 29.8162 1157.76 30.8249 1157.78 31.9196L1157.9 42.2023C1157.91 42.7274 1158.05 43.2426 1158.3 43.7006L1163.34 52.6694C1163.87 53.6242 1163.87 54.789 1163.34 55.7438L1158.3 64.7126C1158.05 65.1706 1157.91 65.6857 1157.9 66.2108L1157.78 76.4936C1157.76 77.5883 1157.18 78.597 1156.24 79.1561L1147.4 84.4077C1146.95 84.6759 1146.57 85.053 1146.3 85.5046L1141.05 94.346C1140.49 95.2872 1139.48 95.8696 1138.39 95.8832L1128.1 96.0105C1127.58 96.0171 1127.06 96.1551 1126.6 96.412L1117.64 101.443C1116.68 101.979 1115.52 101.979 1114.56 101.443L1105.59 96.412C1105.13 96.1551 1104.62 96.0171 1104.09 96.0105L1093.81 95.8832C1092.72 95.8696 1091.71 95.2872 1091.15 94.346L1085.9 85.5046C1085.63 85.053 1085.25 84.6759 1084.8 84.4077L1075.96 79.1561C1075.02 78.597 1074.44 77.5883 1074.42 76.4936L1074.29 66.2108C1074.29 65.6857 1074.15 65.1706 1073.89 64.7126L1068.86 55.7438C1068.33 54.789 1068.33 53.6242 1068.86 52.6694L1073.89 43.7006C1074.15 43.2426 1074.29 42.7274 1074.29 42.2023L1074.42 31.9196C1074.44 30.8249 1075.02 29.8162 1075.96 29.2571L1084.8 24.0054C1085.25 23.7372 1085.63 23.3601 1085.9 22.9086L1091.15 14.0671C1091.71 13.1259 1092.72 12.5435 1093.81 12.53L1104.09 12.4026C1104.62 12.3961 1105.13 12.2581 1105.59 12.0011L1114.56 6.97006Z"/>
    </mask>
    <path d="M1104.09 12.4026L1104.21 21.5636L1104.09 12.4026ZM1105.59 12.0011L1110.08 19.9915L1105.59 12.0011ZM1091.15 14.0671L1083.27 9.3884L1091.15 14.0671ZM1093.81 12.53L1093.7 3.36898L1093.81 12.53ZM1084.8 24.0054L1080.12 16.1285L1084.8 24.0054ZM1085.9 22.9086L1093.77 27.5873L1085.9 22.9086ZM1074.42 31.9196L1083.58 32.033L1074.42 31.9196ZM1075.96 29.2571L1080.64 37.134L1075.96 29.2571ZM1073.89 43.7006L1081.88 48.1828L1073.89 43.7006ZM1074.29 42.2023L1065.13 42.0888L1074.29 42.2023ZM1068.86 55.7438L1060.87 60.226L1068.86 55.7438ZM1068.86 52.6694L1060.87 48.1872L1068.86 52.6694ZM1073.89 64.7126L1081.88 60.2303L1073.89 64.7126ZM1075.96 79.1561L1080.64 71.2792L1075.96 79.1561ZM1074.42 76.4936L1065.26 76.607L1074.42 76.4936ZM1085.9 85.5046L1078.02 90.1833L1085.9 85.5046ZM1084.8 84.4077L1089.48 76.5308L1084.8 84.4077ZM1093.81 95.8832L1093.7 105.044L1093.81 95.8832ZM1091.15 94.346L1099.03 89.6672L1091.15 94.346ZM1105.59 96.412L1101.11 104.402L1105.59 96.412ZM1104.09 96.0105L1103.98 105.172L1104.09 96.0105ZM1117.64 101.443L1122.12 109.433L1117.64 101.443ZM1114.56 101.443L1119.04 93.4527L1114.56 101.443ZM1128.1 96.0105L1127.99 86.8496L1128.1 96.0105ZM1126.6 96.412L1122.12 88.4216L1126.6 96.412ZM1141.05 94.346L1148.93 99.0247L1141.05 94.346ZM1138.39 95.8832L1138.27 86.7222L1138.39 95.8832ZM1147.4 84.4077L1142.72 76.5308L1147.4 84.4077ZM1146.3 85.5046L1138.42 80.8258L1146.3 85.5046ZM1157.78 76.4936L1166.94 76.607L1157.78 76.4936ZM1156.24 79.1561L1151.56 71.2792L1156.24 79.1561ZM1158.3 64.7126L1166.29 69.1948L1158.3 64.7126ZM1157.9 66.2108L1148.74 66.0974L1157.9 66.2108ZM1163.34 52.6694L1171.33 48.1872L1163.34 52.6694ZM1163.34 55.7438L1155.34 51.2615L1163.34 55.7438ZM1157.9 42.2023L1167.06 42.0888L1157.9 42.2023ZM1158.3 43.7006L1150.31 48.1828L1158.3 43.7006ZM1156.24 29.2571L1160.92 21.3802L1156.24 29.2571ZM1157.78 31.9196L1148.61 32.033L1157.78 31.9196ZM1146.3 22.9086L1138.42 27.5873L1146.3 22.9086ZM1147.4 24.0054L1142.72 31.8823L1147.4 24.0054ZM1138.39 12.53L1138.27 21.6909L1138.39 12.53ZM1141.05 14.0672L1133.17 18.7459L1141.05 14.0672ZM1126.6 12.0011L1122.12 19.9915L1126.6 12.0011ZM1128.1 12.4026L1128.22 3.24162L1128.1 12.4026ZM1117.64 6.97006L1122.12 -1.02031L1117.64 6.97006ZM1114.56 6.97006L1110.08 -1.0203L1114.56 6.97006ZM1113.15 14.9604L1122.12 19.9915L1131.09 4.01076L1122.12 -1.02031L1113.15 14.9604ZM1127.99 21.5636L1138.27 21.6909L1138.5 3.36898L1128.22 3.24162L1127.99 21.5636ZM1133.17 18.7459L1138.42 27.5873L1154.18 18.2298L1148.93 9.3884L1133.17 18.7459ZM1142.72 31.8823L1151.56 37.134L1160.92 21.3802L1152.08 16.1285L1142.72 31.8823ZM1148.61 32.033L1148.74 42.3158L1167.06 42.0888L1166.94 31.8061L1148.61 32.033ZM1150.31 48.1828L1155.34 57.1516L1171.33 48.1872L1166.29 39.2184L1150.31 48.1828ZM1155.34 51.2615L1150.31 60.2303L1166.29 69.1948L1171.33 60.226L1155.34 51.2615ZM1148.74 66.0974L1148.61 76.3801L1166.94 76.607L1167.06 66.3243L1148.74 66.0974ZM1151.56 71.2792L1142.72 76.5308L1152.08 92.2846L1160.92 87.033L1151.56 71.2792ZM1138.42 80.8258L1133.17 89.6672L1148.93 99.0247L1154.18 90.1833L1138.42 80.8258ZM1138.27 86.7222L1127.99 86.8496L1128.22 105.172L1138.5 105.044L1138.27 86.7222ZM1122.12 88.4216L1113.15 93.4527L1122.12 109.433L1131.09 104.402L1122.12 88.4216ZM1119.04 93.4527L1110.08 88.4216L1101.11 104.402L1110.08 109.433L1119.04 93.4527ZM1104.21 86.8496L1093.93 86.7222L1093.7 105.044L1103.98 105.172L1104.21 86.8496ZM1099.03 89.6672L1093.77 80.8258L1078.02 90.1833L1083.27 99.0247L1099.03 89.6672ZM1089.48 76.5308L1080.64 71.2792L1071.28 87.033L1080.12 92.2846L1089.48 76.5308ZM1083.58 76.3801L1083.46 66.0974L1065.13 66.3243L1065.26 76.607L1083.58 76.3801ZM1081.88 60.2303L1076.85 51.2615L1060.87 60.226L1065.9 69.1948L1081.88 60.2303ZM1076.85 57.1516L1081.88 48.1828L1065.9 39.2184L1060.87 48.1872L1076.85 57.1516ZM1083.46 42.3158L1083.58 32.033L1065.26 31.8061L1065.13 42.0888L1083.46 42.3158ZM1080.64 37.134L1089.48 31.8823L1080.12 16.1285L1071.28 21.3802L1080.64 37.134ZM1093.77 27.5873L1099.03 18.7459L1083.27 9.3884L1078.02 18.2298L1093.77 27.5873ZM1093.93 21.6909L1104.21 21.5636L1103.98 3.24162L1093.7 3.36898L1093.93 21.6909ZM1110.08 19.9915L1119.04 14.9604L1110.08 -1.0203L1101.11 4.01076L1110.08 19.9915ZM1104.21 21.5636C1106.26 21.5381 1108.28 20.9976 1110.08 19.9915L1101.11 4.01076C1101.99 3.51852 1102.97 3.25408 1103.98 3.24162L1104.21 21.5636ZM1099.03 18.7459C1097.96 20.5492 1096.02 21.665 1093.93 21.6909L1093.7 3.36898C1089.41 3.42208 1085.46 5.70258 1083.27 9.3884L1099.03 18.7459ZM1089.48 31.8823C1091.25 30.8321 1092.72 29.3554 1093.77 27.5873L1078.02 18.2298C1078.53 17.3648 1079.26 16.6423 1080.12 16.1285L1089.48 31.8823ZM1083.58 32.033C1083.56 34.1303 1082.44 36.0628 1080.64 37.134L1071.28 21.3802C1067.59 23.5695 1065.31 27.5194 1065.26 31.8061L1083.58 32.033ZM1081.88 48.1828C1082.89 46.3892 1083.43 44.3721 1083.46 42.3158L1065.13 42.0888C1065.15 41.0828 1065.41 40.0959 1065.9 39.2184L1081.88 48.1828ZM1076.85 51.2615C1077.88 53.0908 1077.88 55.3223 1076.85 57.1516L1060.87 48.1872C1058.77 51.9261 1058.77 56.4871 1060.87 60.226L1076.85 51.2615ZM1083.46 66.0974C1083.43 64.041 1082.89 62.0239 1081.88 60.2303L1065.9 69.1948C1065.41 68.3173 1065.15 67.3304 1065.13 66.3243L1083.46 66.0974ZM1080.64 71.2792C1082.44 72.3503 1083.56 74.2828 1083.58 76.3801L1065.26 76.607C1065.31 80.8937 1067.59 84.8437 1071.28 87.033L1080.64 71.2792ZM1093.77 80.8258C1092.72 79.0577 1091.25 77.5811 1089.48 76.5308L1080.12 92.2846C1079.26 91.7708 1078.53 91.0484 1078.02 90.1833L1093.77 80.8258ZM1093.93 86.7222C1096.02 86.7482 1097.96 87.8639 1099.03 89.6672L1083.27 99.0247C1085.46 102.711 1089.41 104.991 1093.7 105.044L1093.93 86.7222ZM1110.08 88.4216C1108.28 87.4155 1106.26 86.875 1104.21 86.8496L1103.98 105.172C1102.97 105.159 1101.99 104.895 1101.11 104.402L1110.08 88.4216ZM1113.15 93.4527C1114.98 92.4266 1117.21 92.4266 1119.04 93.4527L1110.08 109.433C1113.82 111.531 1118.38 111.531 1122.12 109.433L1113.15 93.4527ZM1127.99 86.8496C1125.93 86.875 1123.92 87.4155 1122.12 88.4216L1131.09 104.402C1130.21 104.895 1129.22 105.159 1128.22 105.172L1127.99 86.8496ZM1133.17 89.6672C1134.24 87.8639 1136.18 86.7482 1138.27 86.7222L1138.5 105.044C1142.79 104.991 1146.74 102.711 1148.93 99.0247L1133.17 89.6672ZM1142.72 76.5308C1140.95 77.5811 1139.47 79.0577 1138.42 80.8258L1154.18 90.1833C1153.66 91.0484 1152.94 91.7708 1152.08 92.2846L1142.72 76.5308ZM1148.61 76.3801C1148.64 74.2828 1149.76 72.3503 1151.56 71.2792L1160.92 87.033C1164.6 84.8437 1166.88 80.8937 1166.94 76.607L1148.61 76.3801ZM1150.31 60.2303C1149.31 62.0239 1148.77 64.041 1148.74 66.0974L1167.06 66.3243C1167.05 67.3304 1166.79 68.3173 1166.29 69.1948L1150.31 60.2303ZM1155.34 57.1516C1154.32 55.3223 1154.32 53.0908 1155.34 51.2615L1171.33 60.226C1173.42 56.4871 1173.42 51.9261 1171.33 48.1872L1155.34 57.1516ZM1148.74 42.3158C1148.77 44.3721 1149.31 46.3892 1150.31 48.1828L1166.29 39.2184C1166.79 40.0959 1167.05 41.0828 1167.06 42.0888L1148.74 42.3158ZM1151.56 37.134C1149.76 36.0628 1148.64 34.1303 1148.61 32.033L1166.94 31.8061C1166.88 27.5194 1164.6 23.5695 1160.92 21.3802L1151.56 37.134ZM1138.42 27.5873C1139.47 29.3554 1140.95 30.8321 1142.72 31.8823L1152.08 16.1285C1152.94 16.6423 1153.66 17.3648 1154.18 18.2298L1138.42 27.5873ZM1138.27 21.6909C1136.18 21.665 1134.24 20.5492 1133.17 18.7459L1148.93 9.3884C1146.74 5.7026 1142.79 3.42208 1138.5 3.36898L1138.27 21.6909ZM1122.12 19.9915C1123.92 20.9976 1125.93 21.5381 1127.99 21.5636L1128.22 3.24162C1129.22 3.25408 1130.21 3.51852 1131.09 4.01076L1122.12 19.9915ZM1122.12 -1.02031C1118.38 -3.11766 1113.82 -3.11765 1110.08 -1.0203L1119.04 14.9604C1117.21 15.9866 1114.98 15.9866 1113.15 14.9604L1122.12 -1.02031Z" fill="#FFF8F5" mask="url(#path-12-inside-1)"/>
    <path fill-rule="evenodd" clip-rule="evenodd" d="M1226.81 54.2066C1226.81 27.8616 1248.17 6.50476 1274.51 6.50476C1300.86 6.50476 1322.21 27.8616 1322.21 54.2066C1322.21 80.5515 1300.86 101.908 1274.51 101.908C1248.17 101.908 1226.81 80.5515 1226.81 54.2066ZM1275.69 30.5389C1289.38 30.5389 1300.47 41.6325 1300.47 55.3171V57.6769C1300.47 71.3615 1289.38 82.4551 1275.69 82.4551H1273.33C1259.65 82.4551 1248.55 71.3615 1248.55 57.6769V55.3171L1248.55 55.2796V36.4385C1248.55 33.1803 1251.2 30.5389 1254.45 30.5389H1273.3L1273.33 30.5389H1275.69Z" fill="#FFF8F5"/>
    <path fill-rule="evenodd" clip-rule="evenodd" d="M1432.93 6.50476C1406.58 6.50476 1385.22 27.8616 1385.22 54.2066C1385.22 80.5515 1406.58 101.908 1432.93 101.908C1459.27 101.908 1480.63 80.5515 1480.63 54.2066C1480.63 27.8616 1459.27 6.50476 1432.93 6.50476Z" fill="#FFF8F5"/>
    <circle cx="7.20658" cy="212.62" r="43.3653" stroke="#FFF8F5" stroke-width="8.67305"/>
    <path d="M2.59694 189.302C4.64569 185.753 9.76756 185.753 11.8163 189.302L22.0833 207.085L32.3504 224.868C34.3991 228.416 31.8382 232.852 27.7407 232.852H7.20663H-13.3274C-17.4249 232.852 -19.9859 228.416 -17.9371 224.868L-7.67008 207.085L2.59694 189.302Z" fill="#FFF8F5"/>
    <path fill-rule="evenodd" clip-rule="evenodd" d="M165.62 164.918C139.275 164.918 117.918 186.275 117.918 212.62C117.918 238.965 139.275 260.322 165.62 260.322C191.965 260.322 213.322 238.965 213.322 212.62C213.322 186.275 191.965 164.918 165.62 164.918Z" fill="#FFF8F5"/>
    <circle cx="324.033" cy="212.62" r="43.3653" stroke="#FFF8F5" stroke-width="8.67305"/>
    <path d="M313.673 188.834C319.361 183.031 328.705 183.031 334.393 188.834L341.039 195.614L347.819 202.26C353.622 207.948 353.622 217.292 347.819 222.98L341.039 229.625L334.393 236.406C328.705 242.209 319.361 242.209 313.673 236.406L307.028 229.625L300.247 222.98C294.444 217.292 294.444 207.948 300.247 202.26L307.028 195.614L313.673 188.834Z" fill="#FFF8F5"/>
    <rect x="471.649" y="156.475" width="94.6707" height="64.1317" rx="32.0659" transform="rotate(45 471.649 156.475)" fill="#FFF8F5"/>
    <path fill-rule="evenodd" clip-rule="evenodd" d="M593.158 212.62C593.158 186.275 614.515 164.918 640.86 164.918C667.204 164.918 688.561 186.275 688.561 212.62C688.561 238.965 667.204 260.322 640.86 260.322C614.515 260.322 593.158 238.965 593.158 212.62ZM614.901 194.852C614.901 191.593 617.543 188.952 620.801 188.952H642.039C655.724 188.952 666.817 200.046 666.817 213.73V216.09C666.817 229.775 655.724 240.868 642.039 240.868H639.68C625.995 240.868 614.901 229.775 614.901 216.09V213.73L614.901 213.693V194.852Z" fill="#FFF8F5"/>
    <circle cx="799.273" cy="212.62" r="43.3653" stroke="#FFF8F5" stroke-width="8.67305"/>
    <path d="M798.101 182.738C798.829 182.33 799.716 182.33 800.444 182.738L805.854 185.773C806.203 185.969 806.596 186.074 806.996 186.079L813.199 186.156C814.033 186.166 814.802 186.61 815.228 187.327L818.396 192.661C818.6 193.005 818.888 193.292 819.232 193.496L824.565 196.664C825.283 197.09 825.726 197.859 825.737 198.693L825.814 204.896C825.818 205.296 825.924 205.689 826.119 206.038L829.154 211.449C829.563 212.176 829.563 213.063 829.154 213.791L826.119 219.202C825.924 219.551 825.818 219.943 825.814 220.343L825.737 226.546C825.726 227.38 825.283 228.149 824.565 228.575L819.232 231.743C818.888 231.948 818.6 232.235 818.396 232.579L815.228 237.913C814.802 238.63 814.033 239.074 813.199 239.084L806.996 239.161C806.596 239.166 806.203 239.271 805.854 239.467L800.444 242.502C799.716 242.91 798.829 242.91 798.101 242.502L792.691 239.467C792.342 239.271 791.949 239.166 791.549 239.161L785.346 239.084C784.512 239.074 783.743 238.63 783.317 237.913L780.149 232.579C779.945 232.235 779.657 231.948 779.313 231.743L773.98 228.575C773.263 228.149 772.819 227.38 772.808 226.546L772.732 220.343C772.727 219.943 772.621 219.551 772.426 219.202L769.391 213.791C768.983 213.063 768.983 212.176 769.391 211.449L772.426 206.038C772.621 205.689 772.727 205.296 772.732 204.896L772.808 198.693C772.819 197.859 773.263 197.09 773.98 196.664L779.313 193.496C779.657 193.292 779.945 193.005 780.149 192.661L783.317 187.327C783.743 186.61 784.512 186.166 785.346 186.156L791.549 186.079C791.949 186.074 792.342 185.969 792.691 185.773L798.101 182.738Z" fill="#FFF8F5"/>
    <mask id="path-25-inside-2" fill="white">
        <path d="M956.148 165.383C957.103 164.848 958.268 164.848 959.223 165.383L968.192 170.414C968.65 170.671 969.165 170.809 969.69 170.816L979.973 170.943C981.067 170.957 982.076 171.539 982.635 172.48L987.887 181.322C988.155 181.773 988.532 182.15 988.984 182.419L997.825 187.67C998.766 188.229 999.349 189.238 999.362 190.333L999.49 200.616C999.496 201.141 999.634 201.656 999.891 202.114L1004.92 211.083C1005.46 212.037 1005.46 213.202 1004.92 214.157L999.891 223.126C999.634 223.584 999.496 224.099 999.49 224.624L999.362 234.907C999.349 236.001 998.766 237.01 997.825 237.569L988.984 242.821C988.532 243.089 988.155 243.466 987.887 243.918L982.635 252.759C982.076 253.7 981.067 254.283 979.973 254.296L969.69 254.424C969.165 254.43 968.65 254.568 968.192 254.825L959.223 259.856C958.268 260.392 957.103 260.392 956.148 259.856L947.18 254.825C946.722 254.568 946.206 254.43 945.681 254.424L935.399 254.296C934.304 254.283 933.295 253.7 932.736 252.759L927.484 243.918C927.216 243.466 926.839 243.089 926.388 242.821L917.546 237.569C916.605 237.01 916.023 236.001 916.009 234.907L915.882 224.624C915.875 224.099 915.737 223.584 915.48 223.126L910.449 214.157C909.913 213.202 909.913 212.037 910.449 211.083L915.48 202.114C915.737 201.656 915.875 201.141 915.882 200.616L916.009 190.333C916.023 189.238 916.605 188.229 917.546 187.67L926.388 182.419C926.839 182.15 927.216 181.773 927.484 181.322L932.736 172.48C933.295 171.539 934.304 170.957 935.399 170.943L945.681 170.816C946.206 170.809 946.722 170.671 947.18 170.414L956.148 165.383Z"/>
    </mask>
    <path d="M945.681 170.816L945.795 179.977L945.681 170.816ZM947.18 170.414L951.662 178.405L947.18 170.414ZM932.736 172.48L940.613 177.159L932.736 172.48ZM935.399 170.943L935.285 161.782L935.399 170.943ZM926.388 182.419L931.066 190.296L926.388 182.419ZM927.484 181.322L919.608 176.643L927.484 181.322ZM916.009 190.333L925.17 190.446L916.009 190.333ZM917.546 187.67L912.867 179.793L917.546 187.67ZM915.48 202.114L907.49 197.632L915.48 202.114ZM915.882 200.616L906.721 200.502L915.882 200.616ZM910.449 214.157L902.459 218.639L910.449 214.157ZM910.449 211.083L918.439 215.565L910.449 211.083ZM915.882 224.624L925.043 224.511L915.882 224.624ZM915.48 223.126L923.471 218.644L915.48 223.126ZM917.546 237.569L912.867 245.446L917.546 237.569ZM916.009 234.907L906.848 235.02L916.009 234.907ZM927.484 243.918L935.361 239.239L927.484 243.918ZM926.388 242.821L931.066 234.944L926.388 242.821ZM935.399 254.296L935.285 263.457L935.399 254.296ZM932.736 252.759L924.859 257.438L932.736 252.759ZM947.18 254.825L942.697 262.816L947.18 254.825ZM945.681 254.424L945.568 263.585L945.681 254.424ZM959.223 259.856L963.705 267.847L959.223 259.856ZM956.148 259.856L960.631 251.866L956.148 259.856ZM969.69 254.424L969.576 245.263L969.69 254.424ZM968.192 254.825L963.709 246.835L968.192 254.825ZM982.635 252.759L990.512 257.438L982.635 252.759ZM979.973 254.296L979.859 245.135L979.973 254.296ZM988.984 242.821L984.305 234.944L988.984 242.821ZM987.887 243.918L980.01 239.239L987.887 243.918ZM999.362 234.907L990.201 234.793L999.362 234.907ZM997.825 237.569L1002.5 245.446L997.825 237.569ZM999.891 223.126L1007.88 227.608L999.891 223.126ZM999.49 224.624L990.329 224.511L999.49 224.624ZM1004.92 211.083L1012.91 206.6L1004.92 211.083ZM1004.92 214.157L996.932 209.675L1004.92 214.157ZM999.49 200.616L1008.65 200.502L999.49 200.616ZM999.891 202.114L991.901 206.596L999.891 202.114ZM997.825 187.67L1002.5 179.793L997.825 187.67ZM999.362 190.333L990.201 190.446L999.362 190.333ZM987.887 181.322L980.01 186.001L987.887 181.322ZM988.984 182.419L984.305 190.296L988.984 182.419ZM979.973 170.943L979.859 180.104L979.973 170.943ZM982.635 172.48L974.758 177.159L982.635 172.48ZM968.192 170.414L972.674 162.424L968.192 170.414ZM969.69 170.816L969.803 161.655L969.69 170.816ZM959.223 165.383L954.741 173.374L959.223 165.383ZM956.148 165.383L951.666 157.393L956.148 165.383ZM954.741 173.374L963.709 178.405L972.674 162.424L963.705 157.393L954.741 173.374ZM969.576 179.977L979.859 180.104L980.086 161.782L969.803 161.655L969.576 179.977ZM974.758 177.159L980.01 186.001L995.764 176.643L990.512 167.802L974.758 177.159ZM984.305 190.296L993.146 195.547L1002.5 179.793L993.662 174.542L984.305 190.296ZM990.201 190.446L990.329 200.729L1008.65 200.502L1008.52 190.219L990.201 190.446ZM991.901 206.596L996.932 215.565L1012.91 206.6L1007.88 197.632L991.901 206.596ZM996.932 209.675L991.901 218.644L1007.88 227.608L1012.91 218.639L996.932 209.675ZM990.329 224.511L990.201 234.793L1008.52 235.02L1008.65 224.738L990.329 224.511ZM993.146 229.692L984.305 234.944L993.662 250.698L1002.5 245.446L993.146 229.692ZM980.01 239.239L974.758 248.08L990.512 257.438L995.764 248.597L980.01 239.239ZM979.859 245.135L969.576 245.263L969.803 263.585L980.086 263.457L979.859 245.135ZM963.709 246.835L954.741 251.866L963.705 267.847L972.674 262.816L963.709 246.835ZM960.631 251.866L951.662 246.835L942.697 262.816L951.666 267.847L960.631 251.866ZM945.795 245.263L935.512 245.135L935.285 263.457L945.568 263.585L945.795 245.263ZM940.613 248.08L935.361 239.239L919.608 248.597L924.859 257.438L940.613 248.08ZM931.066 234.944L922.225 229.692L912.867 245.446L921.709 250.698L931.066 234.944ZM925.17 234.793L925.043 224.511L906.721 224.738L906.848 235.02L925.17 234.793ZM923.471 218.644L918.439 209.675L902.459 218.639L907.49 227.608L923.471 218.644ZM918.439 215.565L923.471 206.596L907.49 197.632L902.459 206.6L918.439 215.565ZM925.043 200.729L925.17 190.446L906.848 190.219L906.721 200.502L925.043 200.729ZM922.225 195.547L931.066 190.296L921.709 174.542L912.867 179.793L922.225 195.547ZM935.361 186.001L940.613 177.159L924.859 167.802L919.608 176.643L935.361 186.001ZM935.512 180.104L945.795 179.977L945.568 161.655L935.285 161.782L935.512 180.104ZM951.662 178.405L960.631 173.374L951.666 157.393L942.697 162.424L951.662 178.405ZM945.795 179.977C947.851 179.951 949.868 179.411 951.662 178.405L942.697 162.424C943.575 161.932 944.562 161.667 945.568 161.655L945.795 179.977ZM940.613 177.159C939.542 178.962 937.609 180.078 935.512 180.104L935.285 161.782C930.998 161.835 927.048 164.116 924.859 167.802L940.613 177.159ZM931.066 190.296C932.834 189.245 934.311 187.769 935.361 186.001L919.608 176.643C920.121 175.778 920.844 175.056 921.709 174.542L931.066 190.296ZM925.17 190.446C925.144 192.544 924.028 194.476 922.225 195.547L912.867 179.793C909.182 181.983 906.901 185.933 906.848 190.219L925.17 190.446ZM923.471 206.596C924.477 204.802 925.017 202.785 925.043 200.729L906.721 200.502C906.733 199.496 906.998 198.509 907.49 197.632L923.471 206.596ZM918.439 209.675C919.466 211.504 919.466 213.736 918.439 215.565L902.459 206.6C900.361 210.339 900.361 214.9 902.459 218.639L918.439 209.675ZM925.043 224.511C925.017 222.454 924.477 220.437 923.471 218.644L907.49 227.608C906.998 226.73 906.733 225.744 906.721 224.738L925.043 224.511ZM922.225 229.692C924.028 230.764 925.144 232.696 925.17 234.793L906.848 235.02C906.901 239.307 909.182 243.257 912.867 245.446L922.225 229.692ZM935.361 239.239C934.311 237.471 932.834 235.994 931.066 234.944L921.709 250.698C920.844 250.184 920.121 249.462 919.608 248.597L935.361 239.239ZM935.512 245.135C937.609 245.161 939.542 246.277 940.613 248.08L924.859 257.438C927.048 261.124 930.998 263.404 935.285 263.457L935.512 245.135ZM951.662 246.835C949.868 245.829 947.851 245.288 945.795 245.263L945.568 263.585C944.562 263.572 943.575 263.308 942.697 262.816L951.662 246.835ZM954.741 251.866C956.57 250.84 958.801 250.84 960.631 251.866L951.666 267.847C955.405 269.944 959.966 269.944 963.705 267.847L954.741 251.866ZM969.576 245.263C967.52 245.288 965.503 245.829 963.709 246.835L972.674 262.816C971.796 263.308 970.809 263.572 969.803 263.585L969.576 245.263ZM974.758 248.08C975.829 246.277 977.762 245.161 979.859 245.135L980.086 263.457C984.373 263.404 988.323 261.124 990.512 257.438L974.758 248.08ZM984.305 234.944C982.537 235.994 981.06 237.471 980.01 239.239L995.764 248.597C995.25 249.462 994.527 250.184 993.662 250.698L984.305 234.944ZM990.201 234.793C990.227 232.696 991.343 230.764 993.146 229.692L1002.5 245.446C1006.19 243.257 1008.47 239.307 1008.52 235.02L990.201 234.793ZM991.901 218.644C990.895 220.437 990.354 222.454 990.329 224.511L1008.65 224.738C1008.64 225.744 1008.37 226.73 1007.88 227.608L991.901 218.644ZM996.932 215.565C995.906 213.736 995.906 211.504 996.932 209.675L1012.91 218.639C1015.01 214.9 1015.01 210.339 1012.91 206.6L996.932 215.565ZM990.329 200.729C990.354 202.785 990.895 204.802 991.901 206.596L1007.88 197.632C1008.37 198.509 1008.64 199.496 1008.65 200.502L990.329 200.729ZM993.146 195.547C991.343 194.476 990.227 192.544 990.201 190.446L1008.52 190.219C1008.47 185.933 1006.19 181.983 1002.5 179.793L993.146 195.547ZM980.01 186.001C981.06 187.769 982.537 189.245 984.305 190.296L993.662 174.542C994.527 175.056 995.25 175.778 995.764 176.643L980.01 186.001ZM979.859 180.104C977.762 180.078 975.829 178.962 974.758 177.159L990.512 167.802C988.323 164.116 984.373 161.835 980.086 161.782L979.859 180.104ZM963.709 178.405C965.503 179.411 967.52 179.951 969.576 179.977L969.803 161.655C970.809 161.667 971.796 161.932 972.674 162.424L963.709 178.405ZM963.705 157.393C959.966 155.296 955.405 155.296 951.666 157.393L960.631 173.374C958.801 174.4 956.57 174.4 954.741 173.374L963.705 157.393Z" fill="#FFF8F5" mask="url(#path-25-inside-2)"/>
    <circle cx="1116.1" cy="212.62" r="43.3653" stroke="#FFF8F5" stroke-width="8.67305"/>
    <path d="M1103.01 191.603C1107.69 179.725 1124.5 179.725 1129.19 191.603C1130.62 195.229 1133.49 198.1 1137.12 199.53C1148.99 204.215 1148.99 221.025 1137.12 225.71C1133.49 227.14 1130.62 230.01 1129.19 233.637C1124.5 245.515 1107.69 245.515 1103.01 233.637C1101.58 230.01 1098.71 227.14 1095.08 225.71C1083.2 221.025 1083.2 204.215 1095.08 199.53C1098.71 198.1 1101.58 195.229 1103.01 191.603Z" fill="#FFF8F5"/>
    <path d="M1284.06 171.548C1304 162.885 1324.25 183.128 1315.58 203.074C1312.94 209.163 1312.94 216.077 1315.58 222.166C1324.25 242.111 1304 262.354 1284.06 253.692C1277.97 251.047 1271.06 251.047 1264.97 253.692C1245.02 262.354 1224.78 242.111 1233.44 222.166C1236.08 216.077 1236.08 209.163 1233.44 203.074C1224.78 183.128 1245.02 162.885 1264.97 171.548C1271.06 174.192 1277.97 174.192 1284.06 171.548Z" fill="#FFF8F5"/>
    <path d="M1431.39 165.383C1432.34 164.848 1433.51 164.848 1434.46 165.383L1443.43 170.414C1443.89 170.671 1444.4 170.809 1444.93 170.816L1455.21 170.943C1456.31 170.957 1457.32 171.539 1457.87 172.48L1463.13 181.322C1463.39 181.773 1463.77 182.15 1464.22 182.419L1473.06 187.67C1474.01 188.229 1474.59 189.238 1474.6 190.333L1474.73 200.616C1474.74 201.141 1474.87 201.656 1475.13 202.114L1480.16 211.083C1480.7 212.037 1480.7 213.202 1480.16 214.157L1475.13 223.126C1474.87 223.584 1474.74 224.099 1474.73 224.624L1474.6 234.907C1474.59 236.001 1474.01 237.01 1473.06 237.569L1464.22 242.821C1463.77 243.089 1463.39 243.466 1463.13 243.918L1457.87 252.759C1457.32 253.7 1456.31 254.283 1455.21 254.296L1444.93 254.424C1444.4 254.43 1443.89 254.568 1443.43 254.825L1434.46 259.856C1433.51 260.392 1432.34 260.392 1431.39 259.856L1422.42 254.825C1421.96 254.568 1421.45 254.43 1420.92 254.424L1410.64 254.296C1409.54 254.283 1408.53 253.7 1407.98 252.759L1402.72 243.918C1402.46 243.466 1402.08 243.089 1401.63 242.821L1392.79 237.569C1391.84 237.01 1391.26 236.001 1391.25 234.907L1391.12 224.624C1391.11 224.099 1390.98 223.584 1390.72 223.126L1385.69 214.157C1385.15 213.202 1385.15 212.037 1385.69 211.083L1390.72 202.114C1390.98 201.656 1391.11 201.141 1391.12 200.616L1391.25 190.333C1391.26 189.238 1391.84 188.229 1392.79 187.67L1401.63 182.419C1402.08 182.15 1402.46 181.773 1402.72 181.322L1407.98 172.48C1408.53 171.539 1409.54 170.957 1410.64 170.943L1420.92 170.816C1421.45 170.809 1421.96 170.671 1422.42 170.414L1431.39 165.383Z" fill="#FFF8F5"/>
    <path d="M5.66937 323.796C6.62419 323.261 7.78895 323.261 8.74376 323.796L17.7126 328.828C18.1706 329.084 18.6857 329.223 19.2108 329.229L29.4936 329.356C30.5883 329.37 31.597 329.952 32.1561 330.894L37.4077 339.735C37.6759 340.187 38.053 340.564 38.5046 340.832L47.346 346.083C48.2872 346.643 48.8696 347.651 48.8832 348.746L49.0105 359.029C49.0171 359.554 49.1551 360.069 49.412 360.527L54.4431 369.496C54.9787 370.451 54.9787 371.615 54.4431 372.57L49.412 381.539C49.1551 381.997 49.0171 382.512 49.0105 383.037L48.8832 393.32C48.8696 394.415 48.2872 395.423 47.346 395.982L38.5046 401.234C38.053 401.502 37.6759 401.879 37.4077 402.331L32.1561 411.172C31.597 412.114 30.5883 412.696 29.4936 412.71L19.2108 412.837C18.6857 412.843 18.1706 412.981 17.7126 413.238L8.74376 418.269C7.78895 418.805 6.62419 418.805 5.66938 418.269L-3.29942 413.238C-3.75744 412.981 -4.27257 412.843 -4.7977 412.837L-15.0804 412.71C-16.1751 412.696 -17.1838 412.114 -17.7429 411.172L-22.9946 402.331C-23.2628 401.879 -23.6399 401.502 -24.0914 401.234L-32.9328 395.982C-33.8741 395.423 -34.4565 394.415 -34.47 393.32L-34.5974 383.037C-34.6039 382.512 -34.7419 381.997 -34.9989 381.539L-40.0299 372.57C-40.5655 371.615 -40.5655 370.451 -40.0299 369.496L-34.9989 360.527C-34.7419 360.069 -34.6039 359.554 -34.5974 359.029L-34.47 348.746C-34.4565 347.651 -33.8741 346.643 -32.9328 346.083L-24.0914 340.832C-23.6399 340.564 -23.2628 340.187 -22.9946 339.735L-17.7429 330.894C-17.1838 329.952 -16.1751 329.37 -15.0804 329.356L-4.7977 329.229C-4.27256 329.223 -3.75744 329.084 -3.29942 328.828L5.66937 323.796Z" fill="#FFF8F5"/>
    <mask id="path-32-inside-3" fill="white">
        <path d="M164.082 323.796C165.037 323.261 166.202 323.261 167.157 323.796L176.126 328.828C176.584 329.084 177.099 329.223 177.624 329.229L187.907 329.356C189.001 329.37 190.01 329.952 190.569 330.894L195.821 339.735C196.089 340.187 196.466 340.564 196.918 340.832L205.759 346.083C206.7 346.643 207.283 347.651 207.296 348.746L207.424 359.029C207.43 359.554 207.568 360.069 207.825 360.527L212.856 369.496C213.392 370.451 213.392 371.615 212.856 372.57L207.825 381.539C207.568 381.997 207.43 382.512 207.424 383.037L207.296 393.32C207.283 394.415 206.7 395.423 205.759 395.982L196.918 401.234C196.466 401.502 196.089 401.879 195.821 402.331L190.569 411.172C190.01 412.114 189.001 412.696 187.907 412.71L177.624 412.837C177.099 412.843 176.584 412.981 176.126 413.238L167.157 418.269C166.202 418.805 165.037 418.805 164.082 418.269L155.114 413.238C154.656 412.981 154.141 412.843 153.615 412.837L143.333 412.71C142.238 412.696 141.229 412.114 140.67 411.172L135.418 402.331C135.15 401.879 134.773 401.502 134.322 401.234L125.48 395.982C124.539 395.423 123.957 394.415 123.943 393.32L123.816 383.037C123.809 382.512 123.671 381.997 123.414 381.539L118.383 372.57C117.848 371.615 117.848 370.451 118.383 369.496L123.414 360.527C123.671 360.069 123.809 359.554 123.816 359.029L123.943 348.746C123.957 347.651 124.539 346.643 125.48 346.083L134.322 340.832C134.773 340.564 135.15 340.187 135.418 339.735L140.67 330.894C141.229 329.952 142.238 329.37 143.333 329.356L153.615 329.229C154.141 329.223 154.656 329.084 155.114 328.828L164.082 323.796Z"/>
    </mask>
    <path d="M153.615 329.229L153.729 338.39L153.615 329.229ZM155.114 328.828L159.596 336.818L155.114 328.828ZM140.67 330.894L148.547 335.572L140.67 330.894ZM143.333 329.356L143.219 320.195L143.333 329.356ZM134.322 340.832L139 348.709L134.322 340.832ZM135.418 339.735L127.542 335.056L135.418 339.735ZM123.943 348.746L133.104 348.859L123.943 348.746ZM125.48 346.083L120.801 338.207L125.48 346.083ZM123.414 360.527L115.424 356.045L123.414 360.527ZM123.816 359.029L114.655 358.915L123.816 359.029ZM118.383 372.57L110.393 377.052L118.383 372.57ZM118.383 369.496L126.374 373.978L118.383 369.496ZM123.816 383.037L132.977 382.924L123.816 383.037ZM123.414 381.539L131.405 377.057L123.414 381.539ZM125.48 395.982L120.801 403.859L125.48 395.982ZM123.943 393.32L114.782 393.433L123.943 393.32ZM135.418 402.331L143.295 397.652L135.418 402.331ZM134.322 401.234L139 393.357L134.322 401.234ZM143.333 412.71L143.219 421.871L143.333 412.71ZM140.67 411.172L132.793 415.851L140.67 411.172ZM155.114 413.238L150.631 421.229L155.114 413.238ZM153.615 412.837L153.502 421.998L153.615 412.837ZM167.157 418.269L171.639 426.26L167.157 418.269ZM164.082 418.269L168.565 410.279L164.082 418.269ZM177.624 412.837L177.51 403.676L177.624 412.837ZM176.126 413.238L171.643 405.248L176.126 413.238ZM190.569 411.172L198.446 415.851L190.569 411.172ZM187.907 412.71L187.793 403.549L187.907 412.71ZM196.918 401.234L192.239 393.357L196.918 401.234ZM195.821 402.331L187.944 397.652L195.821 402.331ZM207.296 393.32L198.135 393.207L207.296 393.32ZM205.759 395.982L210.438 403.859L205.759 395.982ZM207.825 381.539L215.815 386.021L207.825 381.539ZM207.424 383.037L198.263 382.924L207.424 383.037ZM212.856 369.496L220.847 365.014L212.856 369.496ZM212.856 372.57L204.866 368.088L212.856 372.57ZM207.424 359.029L216.585 358.915L207.424 359.029ZM207.825 360.527L199.835 365.009L207.825 360.527ZM205.759 346.083L210.438 338.207L205.759 346.083ZM207.296 348.746L198.135 348.859L207.296 348.746ZM195.821 339.735L187.944 344.414L195.821 339.735ZM196.918 340.832L192.239 348.709L196.918 340.832ZM187.907 329.356L187.793 338.517L187.907 329.356ZM190.569 330.894L182.692 335.572L190.569 330.894ZM176.126 328.828L180.608 320.837L176.126 328.828ZM177.624 329.229L177.737 320.068L177.624 329.229ZM167.157 323.796L162.675 331.787L167.157 323.796ZM164.082 323.796L159.6 315.806L164.082 323.796ZM162.675 331.787L171.643 336.818L180.608 320.837L171.639 315.806L162.675 331.787ZM177.51 338.39L187.793 338.517L188.02 320.195L177.737 320.068L177.51 338.39ZM182.692 335.572L187.944 344.414L203.698 335.056L198.446 326.215L182.692 335.572ZM192.239 348.709L201.08 353.96L210.438 338.207L201.596 332.955L192.239 348.709ZM198.135 348.859L198.263 359.142L216.585 358.915L216.457 348.633L198.135 348.859ZM199.835 365.009L204.866 373.978L220.847 365.014L215.815 356.045L199.835 365.009ZM204.866 368.088L199.835 377.057L215.815 386.021L220.847 377.052L204.866 368.088ZM198.263 382.924L198.135 393.207L216.457 393.433L216.585 383.151L198.263 382.924ZM201.08 388.106L192.239 393.357L201.596 409.111L210.438 403.859L201.08 388.106ZM187.944 397.652L182.692 406.494L198.446 415.851L203.698 407.01L187.944 397.652ZM187.793 403.549L177.51 403.676L177.737 421.998L188.02 421.871L187.793 403.549ZM171.643 405.248L162.675 410.279L171.639 426.26L180.608 421.229L171.643 405.248ZM168.565 410.279L159.596 405.248L150.631 421.229L159.6 426.26L168.565 410.279ZM153.729 403.676L143.446 403.549L143.219 421.871L153.502 421.998L153.729 403.676ZM148.547 406.494L143.295 397.652L127.542 407.01L132.793 415.851L148.547 406.494ZM139 393.357L130.159 388.106L120.801 403.859L129.643 409.111L139 393.357ZM133.104 393.207L132.977 382.924L114.655 383.151L114.782 393.433L133.104 393.207ZM131.405 377.057L126.374 368.088L110.393 377.052L115.424 386.021L131.405 377.057ZM126.374 373.978L131.405 365.009L115.424 356.045L110.393 365.014L126.374 373.978ZM132.977 359.142L133.104 348.859L114.782 348.633L114.655 358.915L132.977 359.142ZM130.159 353.96L139 348.709L129.643 332.955L120.801 338.207L130.159 353.96ZM143.295 344.414L148.547 335.572L132.793 326.215L127.542 335.056L143.295 344.414ZM143.446 338.517L153.729 338.39L153.502 320.068L143.219 320.195L143.446 338.517ZM159.596 336.818L168.565 331.787L159.6 315.806L150.631 320.837L159.596 336.818ZM153.729 338.39C155.785 338.365 157.802 337.824 159.596 336.818L150.631 320.837C151.509 320.345 152.496 320.08 153.502 320.068L153.729 338.39ZM148.547 335.572C147.476 337.376 145.543 338.491 143.446 338.517L143.219 320.195C138.933 320.248 134.983 322.529 132.793 326.215L148.547 335.572ZM139 348.709C140.769 347.658 142.245 346.182 143.295 344.414L127.542 335.056C128.055 334.191 128.778 333.469 129.643 332.955L139 348.709ZM133.104 348.859C133.078 350.957 131.962 352.889 130.159 353.96L120.801 338.207C117.116 340.396 114.835 344.346 114.782 348.633L133.104 348.859ZM131.405 365.009C132.411 363.216 132.951 361.199 132.977 359.142L114.655 358.915C114.667 357.909 114.932 356.922 115.424 356.045L131.405 365.009ZM126.374 368.088C127.4 369.917 127.4 372.149 126.374 373.978L110.393 365.014C108.295 368.752 108.295 373.314 110.393 377.052L126.374 368.088ZM132.977 382.924C132.951 380.867 132.411 378.85 131.405 377.057L115.424 386.021C114.932 385.144 114.667 384.157 114.655 383.151L132.977 382.924ZM130.159 388.106C131.962 389.177 133.078 391.109 133.104 393.207L114.782 393.433C114.835 397.72 117.116 401.67 120.801 403.859L130.159 388.106ZM143.295 397.652C142.245 395.884 140.769 394.407 139 393.357L129.643 409.111C128.778 408.597 128.055 407.875 127.542 407.01L143.295 397.652ZM143.446 403.549C145.543 403.575 147.476 404.69 148.547 406.494L132.793 415.851C134.983 419.537 138.933 421.817 143.219 421.871L143.446 403.549ZM159.596 405.248C157.802 404.242 155.785 403.701 153.729 403.676L153.502 421.998C152.496 421.985 151.509 421.721 150.631 421.229L159.596 405.248ZM162.675 410.279C164.504 409.253 166.735 409.253 168.565 410.279L159.6 426.26C163.339 428.357 167.9 428.357 171.639 426.26L162.675 410.279ZM177.51 403.676C175.454 403.701 173.437 404.242 171.643 405.248L180.608 421.229C179.73 421.721 178.743 421.985 177.737 421.998L177.51 403.676ZM182.692 406.494C183.763 404.69 185.696 403.575 187.793 403.549L188.02 421.871C192.307 421.817 196.257 419.537 198.446 415.851L182.692 406.494ZM192.239 393.357C190.471 394.407 188.994 395.884 187.944 397.652L203.698 407.01C203.184 407.875 202.461 408.597 201.596 409.111L192.239 393.357ZM198.135 393.207C198.161 391.109 199.277 389.177 201.08 388.106L210.438 403.859C214.124 401.67 216.404 397.72 216.457 393.433L198.135 393.207ZM199.835 377.057C198.829 378.85 198.288 380.867 198.263 382.924L216.585 383.151C216.572 384.157 216.308 385.144 215.815 386.021L199.835 377.057ZM204.866 373.978C203.84 372.149 203.84 369.917 204.866 368.088L220.847 377.052C222.944 373.313 222.944 368.752 220.847 365.014L204.866 373.978ZM198.263 359.142C198.288 361.199 198.829 363.216 199.835 365.009L215.815 356.045C216.308 356.922 216.572 357.909 216.585 358.915L198.263 359.142ZM201.08 353.96C199.277 352.889 198.161 350.957 198.135 348.859L216.457 348.633C216.404 344.346 214.124 340.396 210.438 338.207L201.08 353.96ZM187.944 344.414C188.994 346.182 190.471 347.658 192.239 348.709L201.596 332.955C202.461 333.469 203.184 334.191 203.698 335.056L187.944 344.414ZM187.793 338.517C185.696 338.491 183.763 337.376 182.692 335.572L198.446 326.215C196.257 322.529 192.307 320.248 188.02 320.195L187.793 338.517ZM171.643 336.818C173.437 337.824 175.454 338.365 177.51 338.39L177.737 320.068C178.743 320.08 179.73 320.345 180.608 320.837L171.643 336.818ZM171.639 315.806C167.9 313.709 163.339 313.709 159.6 315.806L168.565 331.787C166.735 332.813 164.504 332.813 162.675 331.787L171.639 315.806Z" fill="#FFF8F5" mask="url(#path-32-inside-3)"/>
    <circle cx="324.033" cy="371.033" r="43.3653" stroke="#FFF8F5" stroke-width="8.67305"/>
    <path d="M310.943 350.016C315.628 338.138 332.438 338.138 337.123 350.016C338.553 353.642 341.424 356.513 345.05 357.943C356.928 362.628 356.928 379.438 345.05 384.123C341.424 385.553 338.553 388.424 337.123 392.05C332.438 403.928 315.628 403.928 310.943 392.05C309.513 388.424 306.642 385.553 303.016 384.123C291.138 379.438 291.138 362.628 303.016 357.943C306.642 356.513 309.513 353.642 310.943 350.016Z" fill="#FFF8F5"/>
    <circle cx="482.446" cy="371.033" r="43.3653" stroke="#FFF8F5" stroke-width="8.67305"/>
    <path d="M477.836 347.715C479.885 344.166 485.007 344.166 487.056 347.715L497.323 365.498L507.59 383.281C509.639 386.829 507.078 391.265 502.98 391.265H482.446H461.912C457.815 391.265 455.254 386.829 457.302 383.281L467.569 365.498L477.836 347.715Z" fill="#FFF8F5"/>
    <path d="M650.406 329.961C670.351 321.298 690.594 341.542 681.932 361.487C679.287 367.576 679.287 374.49 681.932 380.579C690.594 400.524 670.351 420.768 650.406 412.105C644.316 409.461 637.403 409.461 631.313 412.105C611.368 420.768 591.125 400.524 599.787 380.579C602.432 374.49 602.432 367.576 599.787 361.487C591.125 341.542 611.368 321.298 631.313 329.961C637.403 332.605 644.316 332.605 650.406 329.961Z" fill="#FFF8F5"/>
    <path fill-rule="evenodd" clip-rule="evenodd" d="M799.273 323.331C772.928 323.331 751.571 344.688 751.571 371.033C751.571 397.378 772.928 418.735 799.273 418.735C825.618 418.735 846.974 397.378 846.974 371.033C846.974 344.688 825.618 323.331 799.273 323.331Z" fill="#FFF8F5"/>
    <circle cx="957.686" cy="371.033" r="43.3653" stroke="#FFF8F5" stroke-width="8.67305"/>
    <path d="M947.326 347.247C953.013 341.444 962.358 341.444 968.045 347.247L974.691 354.028L981.472 360.673C987.275 366.361 987.275 375.705 981.472 381.393L974.691 388.039L968.045 394.819C962.358 400.622 953.013 400.622 947.326 394.819L940.68 388.039L933.9 381.393C928.096 375.705 928.096 366.361 933.9 360.673L940.68 354.028L947.326 347.247Z" fill="#FFF8F5"/>
    <rect x="1105.3" y="314.888" width="94.6707" height="64.1317" rx="32.0659" transform="rotate(45 1105.3 314.888)" fill="#FFF8F5"/>
    <circle cx="1274.51" cy="371.033" r="43.3653" stroke="#FFF8F5" stroke-width="8.67305"/>
    <path d="M1273.34 341.151C1274.07 340.743 1274.96 340.743 1275.68 341.151L1281.09 344.186C1281.44 344.382 1281.84 344.487 1282.24 344.492L1288.44 344.569C1289.27 344.579 1290.04 345.023 1290.47 345.74L1293.64 351.074C1293.84 351.418 1294.13 351.705 1294.47 351.91L1299.8 355.078C1300.52 355.504 1300.97 356.272 1300.98 357.106L1301.05 363.31C1301.06 363.71 1301.16 364.102 1301.36 364.451L1304.39 369.862C1304.8 370.589 1304.8 371.477 1304.39 372.204L1301.36 377.615C1301.16 377.964 1301.06 378.356 1301.05 378.756L1300.98 384.96C1300.97 385.794 1300.52 386.562 1299.8 386.988L1294.47 390.157C1294.13 390.361 1293.84 390.648 1293.64 390.992L1290.47 396.326C1290.04 397.043 1289.27 397.487 1288.44 397.497L1282.24 397.574C1281.84 397.579 1281.44 397.684 1281.09 397.88L1275.68 400.915C1274.96 401.323 1274.07 401.323 1273.34 400.915L1267.93 397.88C1267.58 397.684 1267.19 397.579 1266.79 397.574L1260.59 397.497C1259.75 397.487 1258.98 397.043 1258.56 396.326L1255.39 390.992C1255.18 390.648 1254.9 390.361 1254.55 390.157L1249.22 386.988C1248.5 386.562 1248.06 385.794 1248.05 384.96L1247.97 378.756C1247.97 378.356 1247.86 377.964 1247.67 377.615L1244.63 372.204C1244.22 371.477 1244.22 370.589 1244.63 369.862L1247.67 364.451C1247.86 364.102 1247.97 363.71 1247.97 363.31L1248.05 357.106C1248.06 356.272 1248.5 355.504 1249.22 355.078L1254.55 351.91C1254.9 351.705 1255.18 351.418 1255.39 351.074L1258.56 345.74C1258.98 345.023 1259.75 344.579 1260.59 344.569L1266.79 344.492C1267.19 344.487 1267.58 344.382 1267.93 344.186L1273.34 341.151Z" fill="#FFF8F5"/>
    <path fill-rule="evenodd" clip-rule="evenodd" d="M1385.22 371.033C1385.22 344.688 1406.58 323.331 1432.93 323.331C1459.27 323.331 1480.63 344.688 1480.63 371.033C1480.63 397.378 1459.27 418.735 1432.93 418.735C1406.58 418.735 1385.22 397.378 1385.22 371.033ZM1434.11 347.365C1447.79 347.365 1458.88 358.459 1458.88 372.144V374.503C1458.88 388.188 1447.79 399.282 1434.11 399.282H1431.75C1418.06 399.282 1406.97 388.188 1406.97 374.503V372.144L1406.97 372.106V353.265C1406.97 350.007 1409.61 347.365 1412.87 347.365H1431.71L1431.75 347.365H1434.11Z" fill="#FFF8F5"/>
    <rect x="-3.59058" y="473.301" width="94.6707" height="64.1317" rx="32.0659" transform="rotate(45 -3.59058 473.301)" fill="#FFF8F5"/>
    <path fill-rule="evenodd" clip-rule="evenodd" d="M117.918 529.446C117.918 503.101 139.275 481.744 165.62 481.744C191.965 481.744 213.322 503.101 213.322 529.446C213.322 555.791 191.965 577.148 165.62 577.148C139.275 577.148 117.918 555.791 117.918 529.446ZM166.8 505.778C180.484 505.778 191.578 516.872 191.578 530.557V532.916C191.578 546.601 180.484 557.695 166.8 557.695H164.44C150.755 557.695 139.662 546.601 139.662 532.916V530.557L139.662 530.519V511.678C139.662 508.42 142.303 505.779 145.561 505.779H164.406L164.44 505.778H166.8Z" fill="#FFF8F5"/>
    <path d="M322.496 482.21C323.451 481.674 324.615 481.674 325.57 482.21L334.539 487.241C334.997 487.498 335.512 487.636 336.037 487.642L346.32 487.769C347.415 487.783 348.423 488.365 348.982 489.307L354.234 498.148C354.502 498.6 354.879 498.977 355.331 499.245L364.172 504.497C365.114 505.056 365.696 506.064 365.71 507.159L365.837 517.442C365.843 517.967 365.981 518.482 366.238 518.94L371.269 527.909C371.805 528.864 371.805 530.028 371.269 530.983L366.238 539.952C365.981 540.41 365.843 540.925 365.837 541.45L365.71 551.733C365.696 552.828 365.114 553.836 364.172 554.396L355.331 559.647C354.879 559.915 354.502 560.293 354.234 560.744L348.982 569.585C348.423 570.527 347.415 571.109 346.32 571.123L336.037 571.25C335.512 571.257 334.997 571.395 334.539 571.652L325.57 576.683C324.615 577.218 323.451 577.218 322.496 576.683L313.527 571.652C313.069 571.395 312.554 571.257 312.029 571.25L301.746 571.123C300.651 571.109 299.643 570.527 299.083 569.585L293.832 560.744C293.564 560.293 293.187 559.915 292.735 559.647L283.894 554.396C282.952 553.836 282.37 552.828 282.356 551.733L282.229 541.45C282.223 540.925 282.084 540.41 281.828 539.952L276.796 530.983C276.261 530.028 276.261 528.864 276.796 527.909L281.828 518.94C282.084 518.482 282.223 517.967 282.229 517.442L282.356 507.159C282.37 506.064 282.952 505.056 283.894 504.497L292.735 499.245C293.187 498.977 293.564 498.6 293.832 498.148L299.083 489.307C299.643 488.365 300.651 487.783 301.746 487.769L312.029 487.642C312.554 487.636 313.069 487.498 313.527 487.241L322.496 482.21Z" fill="#FFF8F5"/>
    <circle cx="482.446" cy="529.446" r="43.3653" stroke="#FFF8F5" stroke-width="8.67305"/>
    <path d="M472.086 505.66C477.774 499.857 487.118 499.857 492.806 505.66L499.452 512.441L506.232 519.086C512.035 524.774 512.035 534.118 506.232 539.806L499.452 546.452L492.806 553.232C487.118 559.035 477.774 559.035 472.086 553.232L465.441 546.452L458.66 539.806C452.857 534.118 452.857 524.774 458.66 519.086L465.441 512.441L472.086 505.66Z" fill="#FFF8F5"/>
    <circle cx="640.859" cy="529.446" r="43.3653" stroke="#FFF8F5" stroke-width="8.67305"/>
    <path d="M627.77 508.429C632.454 496.551 649.265 496.551 653.949 508.429C655.379 512.055 658.25 514.926 661.876 516.356C673.754 521.041 673.754 537.851 661.876 542.536C658.25 543.966 655.379 546.837 653.949 550.463C649.265 562.341 632.454 562.341 627.77 550.463C626.339 546.837 623.469 543.966 619.842 542.536C607.964 537.851 607.964 521.041 619.842 516.356C623.469 514.926 626.339 512.055 627.77 508.429Z" fill="#FFF8F5"/>
    <circle cx="799.273" cy="529.446" r="43.3653" stroke="#FFF8F5" stroke-width="8.67305"/>
    <path d="M794.663 506.128C796.712 502.579 801.833 502.579 803.882 506.128L814.149 523.911L824.416 541.694C826.465 545.242 823.904 549.678 819.807 549.678H799.273H778.738C774.641 549.678 772.08 545.242 774.129 541.694L784.396 523.911L794.663 506.128Z" fill="#FFF8F5"/>
    <circle cx="957.686" cy="529.446" r="43.3653" stroke="#FFF8F5" stroke-width="8.67305"/>
    <path d="M956.514 499.564C957.242 499.156 958.129 499.156 958.857 499.564L964.267 502.599C964.616 502.795 965.009 502.9 965.409 502.905L971.612 502.982C972.446 502.992 973.215 503.436 973.641 504.153L976.809 509.487C977.013 509.831 977.301 510.118 977.645 510.323L982.979 513.491C983.696 513.917 984.139 514.685 984.15 515.519L984.227 521.723C984.232 522.123 984.337 522.515 984.532 522.864L987.568 528.275C987.976 529.002 987.976 529.89 987.568 530.617L984.532 536.028C984.337 536.377 984.232 536.769 984.227 537.169L984.15 543.373C984.139 544.207 983.696 544.975 982.979 545.401L977.645 548.57C977.301 548.774 977.013 549.061 976.809 549.405L973.641 554.739C973.215 555.456 972.446 555.9 971.612 555.91L965.409 555.987C965.009 555.992 964.616 556.097 964.267 556.293L958.857 559.328C958.129 559.736 957.242 559.736 956.514 559.328L951.104 556.293C950.755 556.097 950.362 555.992 949.962 555.987L943.759 555.91C942.925 555.9 942.156 555.456 941.73 554.739L938.562 549.405C938.358 549.061 938.071 548.774 937.727 548.57L932.393 545.401C931.676 544.975 931.232 544.207 931.222 543.373L931.145 537.169C931.14 536.769 931.035 536.377 930.839 536.028L927.804 530.617C927.396 529.89 927.396 529.002 927.804 528.275L930.839 522.864C931.035 522.515 931.14 522.123 931.145 521.723L931.222 515.519C931.232 514.685 931.676 513.917 932.393 513.491L937.727 510.323C938.071 510.118 938.358 509.831 938.562 509.487L941.73 504.153C942.156 503.436 942.925 502.992 943.759 502.982L949.962 502.905C950.362 502.9 950.755 502.795 951.104 502.599L956.514 499.564Z" fill="#FFF8F5"/>
    <path fill-rule="evenodd" clip-rule="evenodd" d="M1116.1 481.744C1089.75 481.744 1068.4 503.101 1068.4 529.446C1068.4 555.791 1089.75 577.148 1116.1 577.148C1142.44 577.148 1163.8 555.791 1163.8 529.446C1163.8 503.101 1142.44 481.744 1116.1 481.744Z" fill="#FFF8F5"/>
    <mask id="path-58-inside-4" fill="white">
        <path d="M1272.97 482.21C1273.93 481.674 1275.09 481.674 1276.05 482.21L1285.02 487.241C1285.48 487.498 1285.99 487.636 1286.52 487.642L1296.8 487.769C1297.89 487.783 1298.9 488.365 1299.46 489.307L1304.71 498.148C1304.98 498.6 1305.36 498.977 1305.81 499.245L1314.65 504.497C1315.59 505.056 1316.18 506.064 1316.19 507.159L1316.32 517.442C1316.32 517.967 1316.46 518.482 1316.72 518.94L1321.75 527.909C1322.28 528.864 1322.28 530.028 1321.75 530.983L1316.72 539.952C1316.46 540.41 1316.32 540.925 1316.32 541.45L1316.19 551.733C1316.18 552.828 1315.59 553.836 1314.65 554.396L1305.81 559.647C1305.36 559.915 1304.98 560.293 1304.71 560.744L1299.46 569.585C1298.9 570.527 1297.89 571.109 1296.8 571.123L1286.52 571.25C1285.99 571.257 1285.48 571.395 1285.02 571.652L1276.05 576.683C1275.09 577.218 1273.93 577.218 1272.97 576.683L1264.01 571.652C1263.55 571.395 1263.03 571.257 1262.51 571.25L1252.22 571.123C1251.13 571.109 1250.12 570.527 1249.56 569.585L1244.31 560.744C1244.04 560.293 1243.67 559.915 1243.21 559.647L1234.37 554.396C1233.43 553.836 1232.85 552.828 1232.84 551.733L1232.71 541.45C1232.7 540.925 1232.56 540.41 1232.31 539.952L1227.28 530.983C1226.74 530.028 1226.74 528.864 1227.28 527.909L1232.31 518.94C1232.56 518.482 1232.7 517.967 1232.71 517.442L1232.84 507.159C1232.85 506.064 1233.43 505.056 1234.37 504.497L1243.21 499.245C1243.67 498.977 1244.04 498.6 1244.31 498.148L1249.56 489.307C1250.12 488.365 1251.13 487.783 1252.22 487.769L1262.51 487.642C1263.03 487.636 1263.55 487.498 1264.01 487.241L1272.97 482.21Z"/>
    </mask>
    <path d="M1262.51 487.642L1262.62 496.803L1262.51 487.642ZM1264.01 487.241L1268.49 495.231L1264.01 487.241ZM1249.56 489.307L1241.69 484.628L1249.56 489.307ZM1252.22 487.769L1252.11 478.608L1252.22 487.769ZM1243.21 499.245L1238.54 491.368L1243.21 499.245ZM1244.31 498.148L1252.19 502.827L1244.31 498.148ZM1232.84 507.159L1242 507.273L1232.84 507.159ZM1234.37 504.497L1239.05 512.373L1234.37 504.497ZM1232.31 518.94L1240.3 523.422L1232.31 518.94ZM1232.71 517.442L1223.55 517.328L1232.71 517.442ZM1227.28 530.983L1235.27 526.501L1227.28 530.983ZM1227.28 527.909L1219.29 523.427L1227.28 527.909ZM1232.31 539.952L1224.32 544.434L1232.31 539.952ZM1234.37 554.396L1239.05 546.519L1234.37 554.396ZM1232.84 551.733L1223.67 551.847L1232.84 551.733ZM1244.31 560.744L1236.43 565.423L1244.31 560.744ZM1243.21 559.647L1247.89 551.77L1243.21 559.647ZM1252.22 571.123L1252.34 561.962L1252.22 571.123ZM1249.56 569.585L1257.44 564.907L1249.56 569.585ZM1264.01 571.652L1259.52 579.642L1264.01 571.652ZM1262.51 571.25L1262.39 580.411L1262.51 571.25ZM1276.05 576.683L1280.53 584.673L1276.05 576.683ZM1272.97 576.683L1277.46 568.692L1272.97 576.683ZM1286.52 571.25L1286.4 562.089L1286.52 571.25ZM1285.02 571.652L1280.54 563.661L1285.02 571.652ZM1299.46 569.585L1291.58 564.907L1299.46 569.585ZM1296.8 571.123L1296.69 561.962L1296.8 571.123ZM1305.81 559.647L1301.13 551.77L1305.81 559.647ZM1304.71 560.744L1296.84 556.065L1304.71 560.744ZM1316.19 551.733L1325.35 551.847L1316.19 551.733ZM1314.65 554.396L1309.97 546.519L1314.65 554.396ZM1316.72 539.952L1324.71 544.434L1316.72 539.952ZM1316.32 541.45L1307.15 541.337L1316.32 541.45ZM1321.75 527.909L1329.74 523.427L1321.75 527.909ZM1321.75 530.983L1313.76 526.501L1321.75 530.983ZM1316.32 517.442L1325.48 517.328L1316.32 517.442ZM1316.72 518.94L1308.73 523.422L1316.72 518.94ZM1314.65 504.497L1319.33 496.62L1314.65 504.497ZM1316.19 507.159L1307.03 507.273L1316.19 507.159ZM1304.71 498.148L1296.84 502.827L1304.71 498.148ZM1305.81 499.245L1301.13 507.122L1305.81 499.245ZM1296.8 487.769L1296.69 496.93L1296.8 487.769ZM1299.46 489.307L1291.58 493.985L1299.46 489.307ZM1285.02 487.241L1280.54 495.231L1285.02 487.241ZM1286.52 487.642L1286.63 478.481L1286.52 487.642ZM1276.05 482.21L1280.53 474.219L1276.05 482.21ZM1272.97 482.21L1268.49 474.219L1272.97 482.21ZM1271.57 490.2L1280.54 495.231L1289.5 479.25L1280.53 474.219L1271.57 490.2ZM1286.4 496.803L1296.69 496.93L1296.91 478.608L1286.63 478.481L1286.4 496.803ZM1291.58 493.985L1296.84 502.827L1312.59 493.469L1307.34 484.628L1291.58 493.985ZM1301.13 507.122L1309.97 512.373L1319.33 496.62L1310.49 491.368L1301.13 507.122ZM1307.03 507.273L1307.15 517.555L1325.48 517.328L1325.35 507.046L1307.03 507.273ZM1308.73 523.422L1313.76 532.391L1329.74 523.427L1324.71 514.458L1308.73 523.422ZM1313.76 526.501L1308.73 535.47L1324.71 544.434L1329.74 535.465L1313.76 526.501ZM1307.15 541.337L1307.03 551.62L1325.35 551.847L1325.48 541.564L1307.15 541.337ZM1309.97 546.519L1301.13 551.77L1310.49 567.524L1319.33 562.272L1309.97 546.519ZM1296.84 556.065L1291.58 564.907L1307.34 574.264L1312.59 565.423L1296.84 556.065ZM1296.69 561.962L1286.4 562.089L1286.63 580.411L1296.91 580.284L1296.69 561.962ZM1280.54 563.661L1271.57 568.692L1280.53 584.673L1289.5 579.642L1280.54 563.661ZM1277.46 568.692L1268.49 563.661L1259.52 579.642L1268.49 584.673L1277.46 568.692ZM1262.62 562.089L1252.34 561.962L1252.11 580.284L1262.39 580.411L1262.62 562.089ZM1257.44 564.907L1252.19 556.065L1236.43 565.423L1241.69 574.264L1257.44 564.907ZM1247.89 551.77L1239.05 546.519L1229.69 562.272L1238.54 567.524L1247.89 551.77ZM1242 551.62L1241.87 541.337L1223.55 541.564L1223.67 551.847L1242 551.62ZM1240.3 535.47L1235.27 526.501L1219.29 535.465L1224.32 544.434L1240.3 535.47ZM1235.27 532.391L1240.3 523.422L1224.32 514.458L1219.29 523.427L1235.27 532.391ZM1241.87 517.555L1242 507.273L1223.67 507.046L1223.55 517.328L1241.87 517.555ZM1239.05 512.373L1247.89 507.122L1238.54 491.368L1229.69 496.62L1239.05 512.373ZM1252.19 502.827L1257.44 493.985L1241.69 484.628L1236.43 493.469L1252.19 502.827ZM1252.34 496.93L1262.62 496.803L1262.39 478.481L1252.11 478.608L1252.34 496.93ZM1268.49 495.231L1277.46 490.2L1268.49 474.219L1259.52 479.25L1268.49 495.231ZM1262.62 496.803C1264.68 496.778 1266.69 496.237 1268.49 495.231L1259.52 479.25C1260.4 478.758 1261.39 478.494 1262.39 478.481L1262.62 496.803ZM1257.44 493.985C1256.37 495.789 1254.44 496.904 1252.34 496.93L1252.11 478.608C1247.82 478.662 1243.87 480.942 1241.69 484.628L1257.44 493.985ZM1247.89 507.122C1249.66 506.072 1251.14 504.595 1252.19 502.827L1236.43 493.469C1236.95 492.604 1237.67 491.882 1238.54 491.368L1247.89 507.122ZM1242 507.273C1241.97 509.37 1240.85 511.302 1239.05 512.373L1229.69 496.62C1226.01 498.809 1223.73 502.759 1223.67 507.046L1242 507.273ZM1240.3 523.422C1241.3 521.629 1241.84 519.612 1241.87 517.555L1223.55 517.328C1223.56 516.322 1223.82 515.335 1224.32 514.458L1240.3 523.422ZM1235.27 526.501C1236.29 528.33 1236.29 530.562 1235.27 532.391L1219.29 523.427C1217.19 527.166 1217.19 531.727 1219.29 535.465L1235.27 526.501ZM1241.87 541.337C1241.84 539.281 1241.3 537.263 1240.3 535.47L1224.32 544.434C1223.82 543.557 1223.56 542.57 1223.55 541.564L1241.87 541.337ZM1239.05 546.519C1240.85 547.59 1241.97 549.522 1242 551.62L1223.67 551.847C1223.73 556.133 1226.01 560.083 1229.69 562.272L1239.05 546.519ZM1252.19 556.065C1251.14 554.297 1249.66 552.821 1247.89 551.77L1238.54 567.524C1237.67 567.01 1236.95 566.288 1236.43 565.423L1252.19 556.065ZM1252.34 561.962C1254.44 561.988 1256.37 563.103 1257.44 564.907L1241.69 574.264C1243.87 577.95 1247.82 580.231 1252.11 580.284L1252.34 561.962ZM1268.49 563.661C1266.69 562.655 1264.68 562.115 1262.62 562.089L1262.39 580.411C1261.39 580.399 1260.4 580.134 1259.52 579.642L1268.49 563.661ZM1271.57 568.692C1273.4 567.666 1275.63 567.666 1277.46 568.692L1268.49 584.673C1272.23 586.77 1276.79 586.77 1280.53 584.673L1271.57 568.692ZM1286.4 562.089C1284.35 562.115 1282.33 562.655 1280.54 563.661L1289.5 579.642C1288.62 580.134 1287.64 580.399 1286.63 580.411L1286.4 562.089ZM1291.58 564.907C1292.66 563.103 1294.59 561.988 1296.69 561.962L1296.91 580.284C1301.2 580.231 1305.15 577.95 1307.34 574.264L1291.58 564.907ZM1301.13 551.77C1299.36 552.821 1297.89 554.297 1296.84 556.065L1312.59 565.423C1312.08 566.288 1311.35 567.01 1310.49 567.524L1301.13 551.77ZM1307.03 551.62C1307.05 549.522 1308.17 547.59 1309.97 546.519L1319.33 562.272C1323.02 560.083 1325.3 556.133 1325.35 551.847L1307.03 551.62ZM1308.73 535.47C1307.72 537.263 1307.18 539.281 1307.15 541.337L1325.48 541.564C1325.46 542.57 1325.2 543.557 1324.71 544.434L1308.73 535.47ZM1313.76 532.391C1312.73 530.562 1312.73 528.33 1313.76 526.501L1329.74 535.465C1331.84 531.727 1331.84 527.166 1329.74 523.427L1313.76 532.391ZM1307.15 517.555C1307.18 519.612 1307.72 521.629 1308.73 523.422L1324.71 514.458C1325.2 515.335 1325.46 516.322 1325.48 517.328L1307.15 517.555ZM1309.97 512.373C1308.17 511.302 1307.05 509.37 1307.03 507.273L1325.35 507.046C1325.3 502.759 1323.02 498.809 1319.33 496.62L1309.97 512.373ZM1296.84 502.827C1297.89 504.595 1299.36 506.072 1301.13 507.122L1310.49 491.368C1311.35 491.882 1312.08 492.604 1312.59 493.469L1296.84 502.827ZM1296.69 496.93C1294.59 496.904 1292.66 495.789 1291.58 493.985L1307.34 484.628C1305.15 480.942 1301.2 478.662 1296.91 478.608L1296.69 496.93ZM1280.54 495.231C1282.33 496.237 1284.35 496.778 1286.4 496.803L1286.63 478.481C1287.64 478.494 1288.62 478.758 1289.5 479.25L1280.54 495.231ZM1280.53 474.219C1276.79 472.122 1272.23 472.122 1268.49 474.219L1277.46 490.2C1275.63 491.226 1273.4 491.226 1271.57 490.2L1280.53 474.219Z" fill="#FFF8F5" mask="url(#path-58-inside-4)"/>
    <path d="M1442.47 488.374C1462.42 479.711 1482.66 499.955 1474 519.9C1471.35 525.989 1471.35 532.903 1474 538.992C1482.66 558.937 1462.42 579.181 1442.47 570.518C1436.38 567.874 1429.47 567.874 1423.38 570.518C1403.43 579.181 1383.19 558.937 1391.85 538.992C1394.5 532.903 1394.5 525.989 1391.85 519.9C1383.19 499.955 1403.43 479.711 1423.38 488.374C1429.47 491.019 1436.38 491.019 1442.47 488.374Z" fill="#FFF8F5"/>
</svg>
