<svg width="510" height="184" viewBox="0 0 510 184" fill="none" xmlns="http://www.w3.org/2000/svg">
    <path d="M212.241 5.0324C218.669 5.0324 224.036 7.2858 228.352 11.7742C232.659 16.2718 234.818 21.8179 234.818 28.4034C234.818 34.998 232.659 40.5349 228.352 45.0325C224.046 49.5301 218.678 51.7743 212.241 51.7743H193.62V5.02319H212.241V5.0324ZM212.241 42.9723C216.299 42.9723 219.61 41.6294 222.155 38.9346C224.7 36.2397 225.973 32.7354 225.973 28.4126C225.973 24.0897 224.7 20.5854 222.155 17.8906C219.61 15.1957 216.308 13.8528 212.241 13.8528H202.861V42.9723H212.241Z" fill="#F8572B"/>
    <path d="M249.611 24.1357C250.413 22.0018 251.741 20.3923 253.595 19.3254C255.448 18.2584 257.514 17.725 259.792 17.725V27.3456C257.155 27.0329 254.803 27.5663 252.728 28.946C250.653 30.3256 249.611 32.6158 249.611 35.8257V51.7926H240.969V18.3964H249.611V24.1357Z" fill="#F8572B"/>
    <path d="M292.071 47.6076C288.631 51.0107 284.435 52.7215 279.483 52.7215C274.53 52.7215 270.343 51.0199 266.921 47.6076C263.509 44.2045 261.794 40.0289 261.794 35.0806C261.794 30.1415 263.5 25.9658 266.921 22.5535C270.334 19.1504 274.521 17.4397 279.483 17.4397C284.435 17.4397 288.631 19.1412 292.071 22.5535C295.511 25.9566 297.227 30.1323 297.227 35.0806C297.227 40.0289 295.511 44.2045 292.071 47.6076ZM273.018 41.7028C274.733 43.4411 276.891 44.3057 279.483 44.3057C282.074 44.3057 284.241 43.4411 285.975 41.7028C287.718 39.9645 288.585 37.7663 288.585 35.0898C288.585 32.4133 287.718 30.2151 285.975 28.4767C284.232 26.7384 282.065 25.8738 279.483 25.8738C276.891 25.8738 274.742 26.7384 273.018 28.4767C271.302 30.2151 270.435 32.4133 270.435 35.0898C270.435 37.7663 271.302 39.9645 273.018 41.7028Z" fill="#F8572B"/>
    <path d="M307.611 14.3863C306.182 14.3863 304.946 13.8621 303.894 12.8136C302.843 11.765 302.317 10.5326 302.317 9.10695C302.317 7.68133 302.843 6.43967 303.894 5.36356C304.946 4.29665 306.182 3.76318 307.611 3.76318C309.087 3.76318 310.341 4.29665 311.392 5.36356C312.444 6.43047 312.969 7.68133 312.969 9.10695C312.969 10.5326 312.444 11.765 311.392 12.8136C310.341 13.8621 309.078 14.3863 307.611 14.3863ZM303.323 51.7835V18.3873H311.964V51.7835H303.323Z" fill="#F8572B"/>
    <path d="M345.248 5.03259H353.89V51.7837H345.248V47.8471C342.703 51.0938 339.087 52.7218 334.402 52.7218C329.893 52.7218 326.038 51.0203 322.847 47.608C319.656 44.2049 318.06 40.0292 318.06 35.0809C318.06 30.1419 319.656 25.9662 322.847 22.5539C326.038 19.1508 329.893 17.4401 334.402 17.4401C339.087 17.4401 342.703 19.068 345.248 22.3148V5.03259ZM329.339 41.8687C331.101 43.6255 333.323 44.5084 336.007 44.5084C338.691 44.5084 340.895 43.6255 342.638 41.8687C344.381 40.112 345.248 37.8494 345.248 35.0901C345.248 32.3309 344.381 30.0683 342.638 28.3116C340.895 26.5548 338.691 25.6719 336.007 25.6719C333.323 25.6719 331.11 26.5548 329.339 28.3116C327.578 30.0683 326.692 32.3309 326.692 35.0901C326.692 37.8494 327.578 40.112 329.339 41.8687Z" fill="#F8572B"/>
    <path d="M398.822 51.7837H388.17L371.431 29.8843V51.7837H362.19V5.03259H371.431V25.6351L387.506 5.03259H398.158L380.811 27.7413L398.822 51.7837Z" fill="#F8572B"/>
    <path d="M425.41 18.387H434.052V51.7833H425.41V47.8468C422.819 51.0935 419.185 52.7215 414.491 52.7215C410.027 52.7215 406.2 51.0199 403.009 47.6076C399.818 44.2045 398.222 40.0289 398.222 35.0806C398.222 30.1415 399.818 25.9658 403.009 22.5535C406.2 19.1504 410.027 17.4397 414.491 17.4397C419.176 17.4397 422.819 19.0677 425.41 22.3144V18.387ZM409.474 41.8684C411.217 43.6251 413.421 44.5081 416.105 44.5081C418.789 44.5081 421.002 43.6251 422.773 41.8684C424.534 40.1116 425.42 37.849 425.42 35.0898C425.42 32.3305 424.534 30.0679 422.773 28.3112C421.011 26.5545 418.789 25.6715 416.105 25.6715C413.421 25.6715 411.217 26.5545 409.474 28.3112C407.731 30.0679 406.864 32.3305 406.864 35.0898C406.864 37.849 407.731 40.1116 409.474 41.8684Z" fill="#F8572B"/>
    <path d="M446.171 14.3863C444.742 14.3863 443.506 13.8621 442.454 12.8136C441.403 11.765 440.877 10.5326 440.877 9.10695C440.877 7.68133 441.403 6.43967 442.454 5.36356C443.506 4.29665 444.742 3.76318 446.171 3.76318C447.647 3.76318 448.901 4.29665 449.952 5.36356C451.004 6.43047 451.53 7.68133 451.53 9.10695C451.53 10.5326 451.004 11.765 449.952 12.8136C448.91 13.8621 447.647 14.3863 446.171 14.3863ZM441.892 51.7835V18.3873H450.533V51.7835H441.892Z" fill="#F8572B"/>
    <path d="M484.085 18.3873H492.523V50.1832C492.523 55.3522 490.817 59.2888 487.395 62.0021C483.983 64.7153 479.861 66.0766 475.037 66.0766C471.422 66.0766 468.24 65.3868 465.492 64.0071C462.744 62.6275 460.632 60.604 459.165 57.9276L466.534 53.7243C468.231 56.8422 471.155 58.3966 475.305 58.3966C478.025 58.3966 480.174 57.6792 481.733 56.2628C483.291 54.8372 484.075 52.8137 484.075 50.1832V46.5778C481.53 49.9625 477.961 51.6548 473.359 51.6548C468.628 51.6548 464.662 49.9993 461.471 46.679C458.28 43.3586 456.684 39.3209 456.684 34.5566C456.684 29.8383 458.289 25.8097 461.508 22.471C464.726 19.1323 468.674 17.4584 473.359 17.4584C477.961 17.4584 481.53 19.1507 484.075 22.5354V18.3873H484.085ZM467.973 41.1328C469.734 42.8436 471.985 43.7082 474.705 43.7082C477.426 43.7082 479.676 42.8528 481.438 41.1328C483.199 39.4221 484.085 37.2239 484.085 34.5566C484.085 31.9261 483.199 29.7555 481.438 28.0447C479.676 26.334 477.426 25.4694 474.705 25.4694C471.985 25.4694 469.734 26.3248 467.973 28.0447C466.211 29.7555 465.326 31.9261 465.326 34.5566C465.326 37.2239 466.211 39.4221 467.973 41.1328Z" fill="#F8572B"/>
    <path d="M504.642 14.3863C503.212 14.3863 501.977 13.8621 500.925 12.8136C499.874 11.765 499.348 10.5326 499.348 9.10695C499.348 7.68133 499.874 6.43967 500.925 5.36356C501.977 4.29665 503.212 3.76318 504.642 3.76318C506.118 3.76318 507.372 4.29665 508.423 5.36356C509.475 6.43047 510 7.68133 510 9.10695C510 10.5326 509.475 11.765 508.423 12.8136C507.381 13.8621 506.118 14.3863 504.642 14.3863ZM500.353 51.7835V18.3873H508.995V51.7835H500.353Z" fill="#F8572B"/>
    <path d="M219.785 162.43C228.168 155.164 236.146 147.217 242.463 137.753C248.651 128.84 251.261 120.342 251.261 110.059C251.261 102.931 249.195 97.3113 246.309 92.7861C243.422 88.2609 238.885 85.2441 235.316 84.7015C232.152 84.8394 228.445 86.6238 226.379 88.5368C226.517 92.5102 227.753 99.0956 227.753 103.888C227.753 109.507 224.313 113.894 218.816 113.894C213.181 113.894 208.367 110.197 208.367 104.439C208.367 97.3113 214.279 91.2777 221.703 86.7525C227.2 83.1839 235.039 80.0383 244.52 80.0383C253.595 80.0383 260.88 83.0551 266.239 88.9507C270.776 93.8898 272.695 100.604 272.695 106.904C272.695 115.127 270.5 121.299 264.726 128.703C259.091 136.107 250.155 143.235 240.397 150.639L228.03 159.827H253.456C259.23 159.827 265.685 159.146 269.946 156.258C274.207 153.38 276.679 149.13 278.468 145.295L280.395 145.709C279.575 149.277 277.509 157.362 276.411 163.534C275.175 169.291 274.345 172.989 273.525 175.73C271.33 176.005 266.93 176.143 260.88 176.143C249.472 176.143 236.275 175.868 223.492 175.868C213.735 175.868 207.546 176.143 203.701 176.143L203.562 174.635C208.921 171.066 214.832 166.679 219.785 162.43Z" fill="#F8572B"/>
    <path d="M326.176 80.0475C337.169 80.0475 346.798 85.1153 353.945 94.3037C360.816 103.078 364.671 114.869 364.671 128.988C364.671 155.992 346.798 177.652 325.632 177.652C315.183 177.652 306.255 172.851 298.97 164.628C291.545 156.267 287.285 143.658 287.285 128.988C287.275 101.846 305.01 80.0475 326.176 80.0475ZM338.544 99.9234C335.38 91.2869 330.022 84.2968 324.931 82.9263C315.174 87.3135 308.57 105.819 308.57 128.988C308.57 140.641 310.36 151.466 313.79 159.698C316.954 167.378 322.174 173.136 326.573 174.644C336.469 170.119 342.934 151.889 342.934 128.997C342.943 117.739 341.569 107.87 338.544 99.9234Z" fill="#F8572B"/>
    <path d="M383.771 162.43C392.154 155.164 400.132 147.217 406.449 137.753C412.637 128.84 415.247 120.342 415.247 110.059C415.247 102.931 413.182 97.3113 410.295 92.7861C407.408 88.2609 402.871 85.2441 399.302 84.7015C396.138 84.8394 392.431 86.6238 390.365 88.5368C390.503 92.5102 391.739 99.0956 391.739 103.888C391.739 109.507 388.299 113.894 382.802 113.894C377.167 113.894 372.353 110.197 372.353 104.439C372.353 97.3113 378.265 91.2777 385.689 86.7525C391.186 83.1839 399.025 80.0383 408.506 80.0383C417.581 80.0383 424.867 83.0551 430.225 88.9507C434.762 93.8898 436.681 100.604 436.681 106.904C436.681 115.127 434.486 121.299 428.712 128.703C423.077 136.107 414.141 143.235 404.383 150.639L392.016 159.827H417.442C423.216 159.827 429.681 159.146 433.932 156.258C438.193 153.38 440.665 149.13 442.454 145.295L444.381 145.709C443.561 149.277 441.495 157.362 440.397 163.534C439.161 169.291 438.331 172.989 437.511 175.73C435.316 176.005 430.917 176.143 424.867 176.143C413.458 176.143 400.261 175.868 387.478 175.868C377.721 175.868 371.532 176.143 367.687 176.143L367.548 174.635C372.907 171.066 378.818 166.679 383.771 162.43Z" fill="#F8572B"/>
    <path d="M465.972 167.507C467.346 164.628 467.761 161.473 468.038 158.456C468.176 155.164 468.314 150.639 468.314 145.709V120.765C468.314 118.024 468.314 114.051 468.176 110.896C467.899 104.724 467.355 100.613 465.704 98.4241C464.607 96.7778 462.679 96.0972 460.752 96.0972C458.686 96.3731 457.044 96.7778 454.564 98.0194L453.743 96.0972C459.239 93.7702 467.484 89.383 472.99 85.9523C477.389 83.4873 483.301 80.0566 485.358 80.0566L486.732 80.6085C487.285 82.3928 487.553 84.7198 487.553 86.918C487.553 92.5377 487.276 105.699 487.276 121.878V148.063C487.276 157.518 487.829 161.63 489.065 165.336C490.301 169.31 493.188 173.697 501.165 174.525L501.027 176.171C496.904 176.171 482.886 175.757 475.877 175.757C468.047 175.757 454.296 176.171 452.369 176.171L452.23 174.525C459.783 173.669 463.906 171.894 465.972 167.507Z" fill="#F8572B"/>
    <path d="M72.4434 109.69C69.0771 105.008 67.0297 100.069 67.0297 95.0013C67.0297 89.9427 69.0771 84.9944 72.4434 80.3129C75.2378 76.4315 81.3062 70.1864 88.4353 63.8585C88.7488 63.5826 88.7396 63.0859 88.4168 62.8284C83.1784 58.5699 78.0876 54.9829 74.4815 53.3641C64.7979 49.0228 50.051 53.8424 50.051 65.606V124.415C50.051 136.197 65.8216 141.026 74.6291 136.491C77.857 134.836 83.0401 130.899 88.4629 126.374C88.7765 126.107 88.7857 125.629 88.4906 125.353C85.7976 122.916 74.5553 112.633 72.4434 109.69Z" fill="#F8572B"/>
    <path d="M112.479 53.3641C122.162 49.0228 136.909 53.8424 136.909 65.606V124.415C136.909 136.197 121.139 141.026 112.331 136.491C103.524 131.957 80.1075 110.462 77.1378 106.333C71.8164 98.9287 71.8164 91.074 77.1378 83.6792C82.4592 76.2844 102.795 57.7145 112.479 53.3641Z" fill="#F8572B"/>
    <path d="M92.0411 183.592C41.2894 183.592 0 142.415 0 91.8006C0 41.1866 41.2894 0 92.0411 0C142.793 0 184.082 41.1774 184.082 91.7914C184.082 142.405 142.802 183.592 92.0411 183.592ZM92.0411 17.8616C51.1575 17.8616 17.901 51.0279 17.901 91.8006C17.901 132.573 51.1575 165.74 92.0411 165.74C132.925 165.74 166.181 132.573 166.181 91.8006C166.181 51.0279 132.925 17.8616 92.0411 17.8616Z" fill="#F8572B"/>
</svg>
