<svg width="220" height="34" viewBox="0 0 220 34" fill="none" xmlns="http://www.w3.org/2000/svg">
    <g clip-path="url(#clip0)">
        <path d="M168.985 23.8437C170.505 22.511 171.95 21.0531 173.098 19.32C174.22 17.6869 174.692 16.1289 174.692 14.2425C174.692 12.9348 174.317 11.9055 173.796 11.0765C173.271 10.2474 172.449 9.69367 171.801 9.59356C171.227 9.61859 170.554 9.94395 170.182 10.2975C170.207 11.0264 170.43 12.234 170.43 13.1131C170.43 14.1424 169.807 14.9495 168.811 14.9495C167.791 14.9495 166.916 14.2706 166.916 13.2163C166.916 11.9086 167.986 10.8043 169.332 9.97523C170.328 9.32138 171.748 8.74261 173.47 8.74261C175.114 8.74261 176.435 9.29635 177.406 10.3757C178.228 11.2798 178.578 12.5124 178.578 13.67C178.578 15.1779 178.178 16.3104 177.133 17.665C176.112 19.0228 174.49 20.3305 172.722 21.6882L170.48 23.3713H175.089C176.134 23.3713 177.307 23.2462 178.079 22.7175C178.851 22.1888 179.301 21.4098 179.623 20.7059L179.971 20.781C179.822 21.4348 179.447 22.9177 179.248 24.0502C179.025 25.1045 178.873 25.7834 178.724 26.2871C178.324 26.3371 177.527 26.3622 176.432 26.3622C174.363 26.3622 171.972 26.3121 169.655 26.3121C167.887 26.3121 166.764 26.3622 166.066 26.3622L166.042 26.0869C167.019 25.4267 168.089 24.6227 168.985 23.8437Z" fill="white" fill-opacity="0.5"/>
        <path d="M188.274 8.73462C190.268 8.73462 192.011 9.66377 193.308 11.35C194.554 12.9581 195.252 15.1198 195.252 17.7102C195.252 22.6626 192.011 26.6326 188.174 26.6326C186.279 26.6326 184.66 25.7535 183.339 24.2456C181.993 22.7126 181.221 20.4007 181.221 17.7102C181.224 12.7328 184.437 8.73462 188.274 8.73462ZM190.519 12.3793C189.946 10.7963 188.975 9.51361 188.054 9.26333C186.286 10.0673 185.088 13.4617 185.088 17.7102C185.088 19.8469 185.411 21.8335 186.034 23.3415C186.608 24.7493 187.554 25.8036 188.351 26.082C190.144 25.2529 191.316 21.9086 191.316 17.7102C191.316 15.6485 191.065 13.8372 190.519 12.3793Z" fill="white" fill-opacity="0.5"/>
        <path d="M198.717 23.842C200.237 22.5092 201.682 21.0514 202.83 19.3182C203.952 17.6851 204.424 16.1272 204.424 14.2407C204.424 12.933 204.049 11.9037 203.528 11.0747C203.003 10.2456 202.181 9.6919 201.533 9.59179C200.959 9.61682 200.286 9.94218 199.914 10.2957C199.939 11.0246 200.162 12.2322 200.162 13.1113C200.162 14.1406 199.539 14.9477 198.543 14.9477C197.523 14.9477 196.648 14.2689 196.648 13.2146C196.648 11.9069 197.718 10.8025 199.064 9.97346C200.06 9.31961 201.48 8.74084 203.202 8.74084C204.846 8.74084 206.167 9.29458 207.141 10.3739C207.963 11.278 208.313 12.5107 208.313 13.6682C208.313 15.1761 207.913 16.3086 206.868 17.6632C205.847 19.021 204.225 20.3287 202.457 21.6865L200.215 23.3696H204.824C205.869 23.3696 207.042 23.2444 207.814 22.7157C208.586 22.187 209.036 21.408 209.359 20.7041L209.706 20.7792C209.557 21.433 209.182 22.9159 208.983 24.0485C208.76 25.1027 208.608 25.7816 208.459 26.2853C208.059 26.3354 207.262 26.3604 206.167 26.3604C204.098 26.3604 201.707 26.3103 199.39 26.3103C197.622 26.3103 196.499 26.3604 195.801 26.3604L195.777 26.0851C196.747 25.425 197.821 24.621 198.717 23.842Z" fill="white" fill-opacity="0.5"/>
        <path d="M213.62 24.7743C213.868 24.2456 213.943 23.6668 213.995 23.1162C214.02 22.5124 214.045 21.6833 214.045 20.7792V16.2023C214.045 15.6986 214.045 14.9696 214.02 14.394C213.971 13.2615 213.871 12.5075 213.571 12.1071C213.372 11.8068 213.022 11.6785 212.674 11.6785C212.302 11.7286 212.001 11.8036 211.551 12.0289L211.403 11.6785C212.398 11.2499 213.893 10.4459 214.892 9.81705C215.689 9.36343 216.762 8.73773 217.134 8.73773L217.382 8.83784C217.482 9.1632 217.531 9.5918 217.531 9.99538C217.531 11.0246 217.482 13.4398 217.482 16.4056V21.2078C217.482 22.941 217.581 23.695 217.804 24.3738C218.028 25.1028 218.552 25.9068 219.997 26.0569L219.972 26.3573C219.225 26.3573 216.681 26.2822 215.413 26.2822C213.992 26.2822 211.502 26.3573 211.151 26.3573L211.126 26.0569C212.497 25.9037 213.245 25.5783 213.62 24.7743Z" fill="white" fill-opacity="0.5"/>
        <path d="M46.9521 8.74097C49.4086 8.74097 51.4557 9.61068 53.1026 11.347C54.7465 13.0833 55.5715 15.2263 55.5715 17.7697C55.5715 20.3163 54.7496 22.4562 53.1026 24.1925C51.4588 25.9288 49.4086 26.7985 46.9521 26.7985H39.8433V8.74097H46.9521ZM46.9521 23.3916C48.5029 23.3916 49.7653 22.8723 50.7361 21.8305C51.7069 20.7918 52.1939 19.4372 52.1939 17.7666C52.1939 16.0991 51.7069 14.7445 50.7361 13.7027C49.7653 12.6609 48.5029 12.1416 46.9521 12.1416H43.3729V23.3885H46.9521V23.3916Z" fill="white" fill-opacity="0.5"/>
        <path d="M61.2194 16.1179C61.5264 15.292 62.032 14.6725 62.7423 14.2596C63.4494 13.8466 64.2372 13.6401 65.1088 13.6401V17.3536C64.1039 17.2348 63.2044 17.4412 62.4104 17.9731C61.6164 18.5049 61.2225 19.3903 61.2225 20.6291V26.7954H57.9224V13.8998H61.2225V16.1179H61.2194Z" fill="white" fill-opacity="0.5"/>
        <path d="M77.4318 25.1842C76.1198 26.4981 74.5163 27.1582 72.6243 27.1582C70.7323 27.1582 69.135 26.5012 67.8292 25.1842C66.5234 23.8671 65.8721 22.2559 65.8721 20.3475C65.8721 18.4392 66.5234 16.828 67.8292 15.5109C69.1319 14.1938 70.7323 13.5369 72.6243 13.5369C74.5163 13.5369 76.1198 14.1938 77.4318 15.5109C78.7437 16.8249 79.4013 18.4392 79.4013 20.3475C79.4013 22.2559 78.7469 23.8702 77.4318 25.1842ZM70.1585 22.9004C70.816 23.5699 71.638 23.9077 72.6274 23.9077C73.6168 23.9077 74.4418 23.573 75.1087 22.9004C75.7724 22.2309 76.1074 21.3799 76.1074 20.3475C76.1074 19.3151 75.7755 18.4642 75.1087 17.7947C74.4449 17.1252 73.6168 16.7873 72.6274 16.7873C71.638 16.7873 70.816 17.1221 70.1585 17.7947C69.501 18.4642 69.1753 19.3151 69.1753 20.3475C69.1722 21.3799 69.501 22.2309 70.1585 22.9004Z" fill="white" fill-opacity="0.5"/>
        <path d="M83.365 12.3512C82.8191 12.3512 82.3446 12.1478 81.9445 11.7443C81.5444 11.3407 81.3428 10.862 81.3428 10.3114C81.3428 9.76082 81.5444 9.27904 81.9445 8.86608C82.3446 8.45312 82.8191 8.24664 83.365 8.24664C83.9264 8.24664 84.4102 8.45312 84.8104 8.86608C85.2105 9.27904 85.4121 9.76082 85.4121 10.3114C85.4121 10.862 85.2105 11.3376 84.8104 11.7443C84.4102 12.151 83.9295 12.3512 83.365 12.3512ZM81.7274 26.7953V13.8998H85.0275V26.7953H81.7274Z" fill="white" fill-opacity="0.5"/>
        <path d="M97.7379 8.74097H101.038V26.7954H97.7379V25.2749C96.7671 26.5294 95.3838 27.1583 93.5942 27.1583C91.8728 27.1583 90.4026 26.5013 89.1837 25.1842C87.9648 23.8671 87.3538 22.256 87.3538 20.3476C87.3538 18.4392 87.9617 16.8281 89.1837 15.511C90.4026 14.1939 91.8728 13.5369 93.5942 13.5369C95.3838 13.5369 96.764 14.1657 97.7379 15.4203V8.74097ZM91.665 22.9661C92.338 23.645 93.1879 23.986 94.2083 23.986C95.2287 23.986 96.0754 23.645 96.7392 22.9661C97.4029 22.2872 97.7379 21.4144 97.7379 20.3476C97.7379 19.2808 97.406 18.4079 96.7392 17.7291C96.0754 17.0502 95.2318 16.7092 94.2083 16.7092C93.1848 16.7092 92.338 17.0502 91.665 17.7291C90.9919 18.4079 90.6539 19.2808 90.6539 20.3476C90.6539 21.4144 90.9888 22.2872 91.665 22.9661Z" fill="white" fill-opacity="0.5"/>
        <path d="M118.196 26.7954H114.13L107.737 18.3391V26.7954H104.208V8.74097H107.737V16.6967L113.875 8.74097H117.942L111.317 17.5101L118.196 26.7954Z" fill="white" fill-opacity="0.5"/>
        <path d="M128.348 13.8998H131.648V26.7953H128.348V25.2749C127.358 26.5294 125.969 27.1582 124.179 27.1582C122.473 27.1582 121.012 26.5012 119.793 25.1842C118.574 23.8671 117.963 22.2559 117.963 20.3475C117.963 18.4392 118.571 16.828 119.793 15.5109C121.012 14.1938 122.473 13.5369 124.179 13.5369C125.969 13.5369 127.358 14.1657 128.348 15.4202V13.8998ZM122.262 22.9661C122.926 23.645 123.77 23.986 124.793 23.986C125.817 23.986 126.663 23.645 127.336 22.9661C128.009 22.2872 128.348 21.4144 128.348 20.3475C128.348 19.2807 128.009 18.4079 127.336 17.729C126.663 17.0501 125.814 16.7091 124.793 16.7091C123.773 16.7091 122.926 17.0501 122.262 17.729C121.598 18.4079 121.263 19.2807 121.263 20.3475C121.263 21.4144 121.595 22.2872 122.262 22.9661Z" fill="white" fill-opacity="0.5"/>
        <path d="M136.275 12.3512C135.729 12.3512 135.255 12.1478 134.855 11.7443C134.455 11.3407 134.253 10.862 134.253 10.3114C134.253 9.76082 134.455 9.27904 134.855 8.86608C135.255 8.45312 135.729 8.24664 136.275 8.24664C136.837 8.24664 137.32 8.45312 137.72 8.86608C138.121 9.27904 138.322 9.76082 138.322 10.3114C138.322 10.862 138.121 11.3376 137.72 11.7443C137.317 12.151 136.837 12.3512 136.275 12.3512ZM134.638 26.7953V13.8998H137.938V26.7953H134.638Z" fill="white" fill-opacity="0.5"/>
        <path d="M150.748 13.8998H153.97V26.1791C153.97 28.1751 153.319 29.6955 152.013 30.7435C150.707 31.7916 149.135 32.3172 147.295 32.3172C145.915 32.3172 144.699 32.0512 143.651 31.5163C142.603 30.9844 141.796 30.1992 141.235 29.1699L144.048 27.5462C144.696 28.7507 145.813 29.3514 147.398 29.3514C148.437 29.3514 149.256 29.0761 149.854 28.5254C150.45 27.9748 150.751 27.1927 150.751 26.1791V24.7869C149.78 26.0946 148.415 26.7485 146.66 26.7485C144.851 26.7485 143.338 26.1071 142.122 24.8276C140.903 23.548 140.292 21.9869 140.292 20.1474C140.292 18.3235 140.906 16.7687 142.134 15.4797C143.363 14.1908 144.87 13.5463 146.66 13.5463C148.415 13.5463 149.78 14.2002 150.751 15.5079V13.8998H150.748ZM144.597 22.6815C145.27 23.3447 146.126 23.6732 147.168 23.6732C148.207 23.6732 149.063 23.3416 149.739 22.6815C150.413 22.0182 150.751 21.1735 150.751 20.1411C150.751 19.1275 150.413 18.2891 149.739 17.6259C149.066 16.9626 148.21 16.6341 147.168 16.6341C146.129 16.6341 145.273 16.9657 144.597 17.6259C143.924 18.2891 143.586 19.1275 143.586 20.1411C143.589 21.1735 143.924 22.0214 144.597 22.6815Z" fill="white" fill-opacity="0.5"/>
        <path d="M158.598 12.3512C158.052 12.3512 157.577 12.1478 157.177 11.7443C156.777 11.3407 156.575 10.862 156.575 10.3114C156.575 9.76082 156.777 9.27904 157.177 8.86608C157.577 8.45312 158.052 8.24664 158.598 8.24664C159.159 8.24664 159.643 8.45312 160.043 8.86608C160.443 9.27904 160.645 9.76082 160.645 10.3114C160.645 10.862 160.443 11.3376 160.043 11.7443C159.643 12.151 159.162 12.3512 158.598 12.3512ZM156.963 26.7953V13.8998H160.263V26.7953H156.963Z" fill="white" fill-opacity="0.5"/>
        <path d="M13.1353 20.1129C12.5243 19.2557 12.1552 18.3485 12.1552 17.4193C12.1552 16.4902 12.5274 15.586 13.1353 14.7257C13.6408 14.0124 14.7419 12.8674 16.0353 11.7067C16.0911 11.6567 16.0911 11.5659 16.0322 11.5159C15.0831 10.7369 14.1588 10.0768 13.5075 9.77959C11.752 8.98183 9.07837 9.86719 9.07837 12.0258V22.8097C9.07837 24.9714 11.938 25.8568 13.5354 25.0246C14.1185 24.7212 15.0614 23.9985 16.0446 23.1694C16.1004 23.1225 16.1035 23.0318 16.0477 22.9817C15.5545 22.5406 13.5168 20.6541 13.1353 20.1129Z" fill="white" fill-opacity="0.5"/>
        <path d="M20.3931 9.78582C22.1486 8.98806 24.8222 9.87341 24.8222 12.0321V22.8159C24.8222 24.9777 21.9625 25.863 20.3652 25.0308C18.7678 24.1987 14.5248 20.2568 13.9852 19.4997C13.0206 18.142 13.0206 16.7029 13.9852 15.3451C14.9498 13.9874 18.6345 10.5836 20.3931 9.78582Z" fill="white" fill-opacity="0.5"/>
        <path d="M16.6866 33.6655C7.48728 33.6655 0 26.1133 0 16.8312C0 7.549 7.48728 0 16.6866 0C25.8891 0 33.3733 7.55213 33.3733 16.8312C33.3733 26.1102 25.8891 33.6655 16.6866 33.6655ZM16.6866 3.27551C9.2738 3.27551 3.24428 9.35726 3.24428 16.8343C3.24428 24.3113 9.27691 30.39 16.6866 30.39C24.0964 30.39 30.129 24.3082 30.129 16.8312C30.129 9.35413 24.0995 3.27551 16.6866 3.27551Z" fill="white" fill-opacity="0.5"/>
    </g>
    <defs>
        <clipPath id="clip0">
            <rect width="220" height="33.6655" fill="white"/>
        </clipPath>
    </defs>
</svg>
