<svg width="20" height="18" viewBox="0 0 20 18" fill="none" xmlns="http://www.w3.org/2000/svg">
    <path d="M10.725 11.5583L8.60837 9.46663L8.63337 9.44163C10.0834 7.82496 11.1167 5.96663 11.725 3.99996H14.1667V2.33329H8.33337V0.666626H6.66671V2.33329H0.833374V3.99163H10.1417C9.58337 5.59996 8.70004 7.12496 7.50004 8.45829C6.72504 7.59996 6.08337 6.65829 5.57504 5.66663H3.90837C4.51671 7.02496 5.35004 8.30829 6.39171 9.46663L2.15004 13.65L3.33337 14.8333L7.50004 10.6666L10.0917 13.2583L10.725 11.5583ZM15.4167 7.33329H13.75L10 17.3333H11.6667L12.6 14.8333H16.5584L17.5 17.3333H19.1667L15.4167 7.33329ZM13.2334 13.1666L14.5834 9.55829L15.9334 13.1666H13.2334Z" fill="#F8572B"/>
</svg>
