<svg width="220" height="34" viewBox="0 0 220 34" fill="none" xmlns="http://www.w3.org/2000/svg">
    <g clip-path="url(#clip0)">
        <path d="M168.985 23.8437C170.505 22.511 171.95 21.0531 173.098 19.3199C174.22 17.6869 174.692 16.1289 174.692 14.2424C174.692 12.9347 174.317 11.9054 173.796 11.0764C173.271 10.2473 172.449 9.69361 171.801 9.5935C171.227 9.61853 170.554 9.94389 170.182 10.2974C170.207 11.0263 170.43 12.2339 170.43 13.113C170.43 14.1423 169.807 14.9494 168.811 14.9494C167.791 14.9494 166.916 14.2706 166.916 13.2163C166.916 11.9086 167.986 10.8042 169.332 9.97517C170.328 9.32132 171.748 8.74255 173.47 8.74255C175.114 8.74255 176.435 9.29629 177.406 10.3756C178.228 11.2797 178.578 12.5124 178.578 13.6699C178.578 15.1778 178.178 16.3103 177.133 17.665C176.112 19.0227 174.49 20.3304 172.722 21.6882L170.48 23.3713H175.089C176.134 23.3713 177.307 23.2461 178.079 22.7174C178.851 22.1887 179.301 21.4097 179.623 20.7058L179.971 20.7809C179.822 21.4348 179.447 22.9177 179.248 24.0502C179.025 25.1045 178.873 25.7833 178.724 26.287C178.324 26.3371 177.527 26.3621 176.432 26.3621C174.363 26.3621 171.972 26.312 169.655 26.312C167.887 26.312 166.764 26.3621 166.066 26.3621L166.042 26.0868C167.019 25.4267 168.089 24.6227 168.985 23.8437Z" fill="#F8572B"/>
        <path d="M188.274 8.73462C190.268 8.73462 192.011 9.66377 193.308 11.35C194.554 12.9581 195.252 15.1198 195.252 17.7102C195.252 22.6626 192.011 26.6326 188.174 26.6326C186.279 26.6326 184.66 25.7535 183.339 24.2456C181.993 22.7126 181.221 20.4007 181.221 17.7102C181.224 12.7328 184.437 8.73462 188.274 8.73462ZM190.519 12.3793C189.946 10.7963 188.975 9.51361 188.054 9.26333C186.286 10.0673 185.088 13.4617 185.088 17.7102C185.088 19.8469 185.411 21.8335 186.034 23.3415C186.608 24.7493 187.554 25.8036 188.351 26.082C190.144 25.2529 191.316 21.9086 191.316 17.7102C191.316 15.6485 191.065 13.8372 190.519 12.3793Z" fill="#F8572B"/>
        <path d="M198.717 23.842C200.237 22.5092 201.682 21.0514 202.83 19.3182C203.952 17.6851 204.424 16.1272 204.424 14.2407C204.424 12.933 204.049 11.9037 203.528 11.0747C203.003 10.2456 202.181 9.6919 201.533 9.59179C200.959 9.61682 200.286 9.94218 199.914 10.2957C199.939 11.0246 200.162 12.2322 200.162 13.1113C200.162 14.1406 199.539 14.9477 198.543 14.9477C197.523 14.9477 196.648 14.2689 196.648 13.2146C196.648 11.9069 197.718 10.8025 199.064 9.97346C200.06 9.31961 201.48 8.74084 203.202 8.74084C204.846 8.74084 206.167 9.29458 207.141 10.3739C207.963 11.278 208.313 12.5107 208.313 13.6682C208.313 15.1761 207.913 16.3086 206.868 17.6632C205.847 19.021 204.225 20.3287 202.457 21.6865L200.215 23.3696H204.824C205.869 23.3696 207.042 23.2444 207.814 22.7157C208.586 22.187 209.036 21.408 209.359 20.7041L209.706 20.7792C209.557 21.433 209.182 22.9159 208.983 24.0485C208.76 25.1027 208.608 25.7816 208.459 26.2853C208.059 26.3354 207.262 26.3604 206.167 26.3604C204.098 26.3604 201.707 26.3103 199.39 26.3103C197.622 26.3103 196.499 26.3604 195.801 26.3604L195.777 26.0851C196.747 25.425 197.821 24.621 198.717 23.842Z" fill="#F8572B"/>
        <path d="M213.62 24.7743C213.868 24.2456 213.943 23.6669 213.995 23.1162C214.02 22.5125 214.045 21.6834 214.045 20.7793V16.2023C214.045 15.6986 214.045 14.9697 214.02 14.3941C213.971 13.2616 213.871 12.5076 213.571 12.1072C213.372 11.8068 213.022 11.6786 212.674 11.6786C212.302 11.7286 212.001 11.8037 211.551 12.0289L211.403 11.6786C212.398 11.25 213.893 10.4459 214.892 9.81712C215.689 9.36349 216.762 8.73779 217.134 8.73779L217.382 8.8379C217.482 9.16326 217.531 9.59187 217.531 9.99544C217.531 11.0247 217.482 13.4399 217.482 16.4057V21.2079C217.482 22.9411 217.581 23.695 217.804 24.3739C218.028 25.1028 218.552 25.9068 219.997 26.057L219.972 26.3573C219.225 26.3573 216.681 26.2823 215.413 26.2823C213.992 26.2823 211.502 26.3573 211.151 26.3573L211.126 26.057C212.497 25.9037 213.245 25.5784 213.62 24.7743Z" fill="#F8572B"/>
        <path d="M46.9521 8.74084C49.4086 8.74084 51.4557 9.61056 53.1026 11.3469C54.7465 13.0832 55.5715 15.2262 55.5715 17.7696C55.5715 20.3162 54.7496 22.4561 53.1026 24.1924C51.4588 25.9287 49.4086 26.7984 46.9521 26.7984H39.8433V8.74084H46.9521ZM46.9521 23.3915C48.5029 23.3915 49.7653 22.8721 50.7361 21.8304C51.7069 20.7917 52.1939 19.4371 52.1939 17.7665C52.1939 16.099 51.7069 14.7444 50.7361 13.7026C49.7653 12.6608 48.5029 12.1415 46.9521 12.1415H43.3729V23.3883H46.9521V23.3915Z" fill="#F8572B"/>
        <path d="M61.2194 16.1178C61.5264 15.2918 62.032 14.6724 62.7423 14.2595C63.4494 13.8465 64.2372 13.64 65.1088 13.64V17.3535C64.1039 17.2346 63.2044 17.4411 62.4104 17.9729C61.6164 18.5048 61.2225 19.3901 61.2225 20.629V26.7952H57.9224V13.8997H61.2225V16.1178H61.2194Z" fill="#F8572B"/>
        <path d="M77.4318 25.1842C76.1198 26.4981 74.5163 27.1582 72.6243 27.1582C70.7323 27.1582 69.135 26.5012 67.8292 25.1842C66.5234 23.8671 65.8721 22.2559 65.8721 20.3475C65.8721 18.4392 66.5234 16.828 67.8292 15.5109C69.1319 14.1938 70.7323 13.5369 72.6243 13.5369C74.5163 13.5369 76.1198 14.1938 77.4318 15.5109C78.7437 16.8249 79.4013 18.4392 79.4013 20.3475C79.4013 22.2559 78.7469 23.8702 77.4318 25.1842ZM70.1585 22.9004C70.816 23.5699 71.638 23.9077 72.6274 23.9077C73.6168 23.9077 74.4418 23.573 75.1087 22.9004C75.7724 22.2309 76.1074 21.3799 76.1074 20.3475C76.1074 19.3151 75.7755 18.4642 75.1087 17.7947C74.4449 17.1252 73.6168 16.7873 72.6274 16.7873C71.638 16.7873 70.816 17.1221 70.1585 17.7947C69.501 18.4642 69.1753 19.3151 69.1753 20.3475C69.1722 21.3799 69.501 22.2309 70.1585 22.9004Z" fill="#F8572B"/>
        <path d="M83.365 12.3511C82.8191 12.3511 82.3446 12.1478 81.9445 11.7442C81.5444 11.3406 81.3428 10.862 81.3428 10.3114C81.3428 9.76076 81.5444 9.27898 81.9445 8.86602C82.3446 8.45306 82.8191 8.24658 83.365 8.24658C83.9264 8.24658 84.4102 8.45306 84.8104 8.86602C85.2105 9.27898 85.4121 9.76076 85.4121 10.3114C85.4121 10.862 85.2105 11.3375 84.8104 11.7442C84.4102 12.1509 83.9295 12.3511 83.365 12.3511ZM81.7274 26.7953V13.8997H85.0275V26.7953H81.7274Z" fill="#F8572B"/>
        <path d="M97.7379 8.74084H101.038V26.7952H97.7379V25.2748C96.7671 26.5293 95.3838 27.1581 93.5942 27.1581C91.8728 27.1581 90.4026 26.5012 89.1837 25.1841C87.9648 23.867 87.3538 22.2558 87.3538 20.3475C87.3538 18.4391 87.9617 16.8279 89.1837 15.5109C90.4026 14.1938 91.8728 13.5368 93.5942 13.5368C95.3838 13.5368 96.764 14.1656 97.7379 15.4201V8.74084ZM91.665 22.966C92.338 23.6449 93.1879 23.9859 94.2083 23.9859C95.2287 23.9859 96.0754 23.6449 96.7392 22.966C97.4029 22.2871 97.7379 21.4143 97.7379 20.3475C97.7379 19.2807 97.406 18.4078 96.7392 17.7289C96.0754 17.0501 95.2318 16.7091 94.2083 16.7091C93.1848 16.7091 92.338 17.0501 91.665 17.7289C90.9919 18.4078 90.6539 19.2807 90.6539 20.3475C90.6539 21.4143 90.9888 22.2871 91.665 22.966Z" fill="#F8572B"/>
        <path d="M118.196 26.7952H114.13L107.737 18.339V26.7952H104.208V8.74084H107.737V16.6965L113.875 8.74084H117.942L111.317 17.5099L118.196 26.7952Z" fill="#F8572B"/>
        <path d="M128.348 13.8998H131.648V26.7953H128.348V25.2749C127.358 26.5294 125.969 27.1582 124.179 27.1582C122.473 27.1582 121.012 26.5012 119.793 25.1842C118.574 23.8671 117.963 22.2559 117.963 20.3475C117.963 18.4392 118.571 16.828 119.793 15.5109C121.012 14.1938 122.473 13.5369 124.179 13.5369C125.969 13.5369 127.358 14.1657 128.348 15.4202V13.8998ZM122.262 22.9661C122.926 23.645 123.77 23.986 124.793 23.986C125.817 23.986 126.663 23.645 127.336 22.9661C128.009 22.2872 128.348 21.4144 128.348 20.3475C128.348 19.2807 128.009 18.4079 127.336 17.729C126.663 17.0501 125.814 16.7091 124.793 16.7091C123.773 16.7091 122.926 17.0501 122.262 17.729C121.598 18.4079 121.263 19.2807 121.263 20.3475C121.263 21.4144 121.595 22.2872 122.262 22.9661Z" fill="#F8572B"/>
        <path d="M136.275 12.3511C135.729 12.3511 135.255 12.1478 134.855 11.7442C134.455 11.3406 134.253 10.862 134.253 10.3114C134.253 9.76076 134.455 9.27898 134.855 8.86602C135.255 8.45306 135.729 8.24658 136.275 8.24658C136.837 8.24658 137.32 8.45306 137.72 8.86602C138.121 9.27898 138.322 9.76076 138.322 10.3114C138.322 10.862 138.121 11.3375 137.72 11.7442C137.317 12.1509 136.837 12.3511 136.275 12.3511ZM134.638 26.7953V13.8997H137.938V26.7953H134.638Z" fill="#F8572B"/>
        <path d="M150.748 13.8998H153.97V26.179C153.97 28.175 153.319 29.6954 152.013 30.7435C150.707 31.7915 149.135 32.3171 147.295 32.3171C145.915 32.3171 144.699 32.0512 143.651 31.5162C142.603 30.9844 141.796 30.1991 141.235 29.1698L144.048 27.5462C144.696 28.7506 145.813 29.3513 147.398 29.3513C148.437 29.3513 149.256 29.076 149.854 28.5254C150.45 27.9748 150.751 27.1927 150.751 26.179V24.7869C149.78 26.0946 148.415 26.7484 146.66 26.7484C144.851 26.7484 143.338 26.1071 142.122 24.8275C140.903 23.548 140.292 21.9869 140.292 20.1473C140.292 18.3234 140.906 16.7686 142.134 15.4797C143.363 14.1907 144.87 13.5463 146.66 13.5463C148.415 13.5463 149.78 14.2001 150.751 15.5078V13.8998H150.748ZM144.597 22.6814C145.27 23.3446 146.126 23.6731 147.168 23.6731C148.207 23.6731 149.063 23.3415 149.739 22.6814C150.413 22.0182 150.751 21.1735 150.751 20.1411C150.751 19.1275 150.413 18.289 149.739 17.6258C149.066 16.9626 148.21 16.6341 147.168 16.6341C146.129 16.6341 145.273 16.9657 144.597 17.6258C143.924 18.289 143.586 19.1275 143.586 20.1411C143.589 21.1735 143.924 22.0213 144.597 22.6814Z" fill="#F8572B"/>
        <path d="M158.598 12.3511C158.052 12.3511 157.577 12.1478 157.177 11.7442C156.777 11.3406 156.575 10.862 156.575 10.3114C156.575 9.76076 156.777 9.27898 157.177 8.86602C157.577 8.45306 158.052 8.24658 158.598 8.24658C159.159 8.24658 159.643 8.45306 160.043 8.86602C160.443 9.27898 160.645 9.76076 160.645 10.3114C160.645 10.862 160.443 11.3375 160.043 11.7442C159.643 12.1509 159.162 12.3511 158.598 12.3511ZM156.963 26.7953V13.8997H160.263V26.7953H156.963Z" fill="#F8572B"/>
        <path d="M13.1353 20.1129C12.5243 19.2557 12.1552 18.3484 12.1552 17.4193C12.1552 16.4901 12.5274 15.586 13.1353 14.7256C13.6408 14.0123 14.7419 12.8673 16.0353 11.7067C16.0911 11.6566 16.0911 11.5659 16.0322 11.5158C15.0831 10.7368 14.1588 10.0767 13.5075 9.77953C11.752 8.98177 9.07837 9.86713 9.07837 12.0258V22.8096C9.07837 24.9714 11.938 25.8567 13.5354 25.0246C14.1185 24.7211 15.0614 23.9984 16.0446 23.1694C16.1004 23.1224 16.1035 23.0317 16.0477 22.9817C15.5545 22.5406 13.5168 20.6541 13.1353 20.1129Z" fill="#F8572B"/>
        <path d="M20.3931 9.78576C22.1486 8.988 24.8222 9.87335 24.8222 12.032V22.8158C24.8222 24.9776 21.9625 25.863 20.3652 25.0308C18.7678 24.1986 14.5248 20.2567 13.9852 19.4997C13.0206 18.1419 13.0206 16.7028 13.9852 15.345C14.9498 13.9873 18.6345 10.5835 20.3931 9.78576Z" fill="#F8572B"/>
        <path d="M16.6866 33.6655C7.48728 33.6655 0 26.1133 0 16.8312C0 7.549 7.48728 0 16.6866 0C25.8891 0 33.3733 7.55213 33.3733 16.8312C33.3733 26.1102 25.8891 33.6655 16.6866 33.6655ZM16.6866 3.27551C9.2738 3.27551 3.24428 9.35726 3.24428 16.8343C3.24428 24.3113 9.27691 30.39 16.6866 30.39C24.0964 30.39 30.129 24.3082 30.129 16.8312C30.129 9.35413 24.0995 3.27551 16.6866 3.27551Z" fill="#F8572B"/>
    </g>
    <defs>
        <clipPath id="clip0">
            <rect width="220" height="33.6655" fill="white"/>
        </clipPath>
    </defs>
</svg>
