<svg width="287" height="161" viewBox="0 0 287 161" fill="none" xmlns="http://www.w3.org/2000/svg">
    <path d="M209.27 120.65C202.68 120.65 197.33 115.31 197.33 108.72C197.33 102.13 202.67 96.78 209.26 96.78C215.85 96.78 221.2 102.12 221.2 108.71C221.19 115.3 215.86 120.64 209.27 120.65ZM77.35 120.65C70.76 120.65 65.41 115.31 65.41 108.72C65.41 102.13 70.75 96.78 77.34 96.78C83.93 96.78 89.28 102.12 89.28 108.71C89.28 115.3 83.94 120.64 77.35 120.65ZM213.55 48.76L237.4 7.44999C238.77 5.07999 237.96 2.03999 235.59 0.669994C233.22 -0.700006 230.18 0.109994 228.81 2.47999L204.66 44.31C186.19 35.88 165.45 31.19 143.31 31.19C121.17 31.19 100.44 35.89 81.97 44.31L57.81 2.47999C56.44 0.109994 53.4 -0.710006 51.03 0.659994C48.66 2.02999 47.84 5.06999 49.21 7.43999L73.06 48.76C32.11 71.04 4.1 112.5 0 161.49H286.62C282.52 112.5 254.5 71.04 213.55 48.76Z" fill="white"/>
</svg>
