<svg width="414" height="202" viewBox="0 0 414 202" fill="none" xmlns="http://www.w3.org/2000/svg">
    <circle cx="153.809" cy="47.9363" r="38.349" stroke="white" stroke-width="7.66981"/>
    <path d="M142.233 29.3504C146.376 18.8464 161.242 18.8464 165.384 29.3504C166.649 32.5573 169.188 35.0959 172.395 36.3607C182.899 40.5034 182.899 55.3692 172.395 59.5119C169.188 60.7767 166.649 63.3153 165.384 66.5222C161.242 77.0262 146.376 77.0262 142.233 66.5222C140.968 63.3153 138.43 60.7767 135.223 59.5119C124.719 55.3692 124.719 40.5034 135.223 36.3607C138.43 35.0959 140.968 32.5573 142.233 29.3504Z" fill="white"/>
    <path d="M373.996 11.615C391.634 3.95458 409.536 21.8564 401.875 39.4943C399.536 44.8793 399.536 50.9932 401.875 56.3782C409.536 74.0162 391.634 91.918 373.996 84.2575C368.611 81.9188 362.497 81.9188 357.112 84.2576C339.474 91.918 321.572 74.0162 329.233 56.3782C331.571 50.9932 331.571 44.8793 329.233 39.4943C321.572 21.8564 339.474 3.95458 357.112 11.615C362.497 13.9538 368.611 13.9538 373.996 11.615Z" fill="white"/>
    <circle cx="153.809" cy="153.809" r="38.349" stroke="white" stroke-width="7.66981"/>
    <path d="M152.773 127.383C153.416 127.023 154.201 127.023 154.845 127.383L159.629 130.068C159.938 130.241 160.285 130.334 160.639 130.338L166.125 130.406C166.862 130.415 167.542 130.807 167.919 131.442L170.72 136.158C170.901 136.463 171.155 136.717 171.459 136.897L176.176 139.699C176.81 140.076 177.203 140.756 177.212 141.493L177.28 146.979C177.284 147.333 177.377 147.68 177.55 147.988L180.234 152.773C180.595 153.416 180.595 154.201 180.234 154.845L177.55 159.629C177.377 159.938 177.284 160.285 177.28 160.639L177.212 166.125C177.203 166.862 176.81 167.542 176.176 167.919L171.459 170.72C171.155 170.901 170.901 171.155 170.72 171.459L167.919 176.176C167.542 176.81 166.862 177.203 166.125 177.212L160.639 177.28C160.285 177.284 159.938 177.377 159.629 177.55L154.845 180.234C154.201 180.595 153.416 180.595 152.773 180.234L147.988 177.55C147.68 177.377 147.333 177.284 146.979 177.28L141.493 177.212C140.756 177.203 140.076 176.81 139.699 176.176L136.897 171.459C136.717 171.155 136.463 170.901 136.158 170.72L131.442 167.919C130.807 167.542 130.415 166.862 130.406 166.125L130.338 160.639C130.334 160.285 130.241 159.938 130.068 159.629L127.383 154.845C127.023 154.201 127.023 153.416 127.383 152.773L130.068 147.988C130.241 147.68 130.334 147.333 130.338 146.979L130.406 141.493C130.415 140.756 130.807 140.076 131.442 139.699L136.158 136.897C136.463 136.717 136.717 136.463 136.897 136.158L139.699 131.442C140.076 130.807 140.756 130.415 141.493 130.406L146.979 130.338C147.333 130.334 147.68 130.241 147.988 130.068L152.773 127.383Z" fill="white"/>
    <path fill-rule="evenodd" clip-rule="evenodd" d="M365.554 111.625C342.256 111.625 323.37 130.511 323.37 153.809C323.37 177.106 342.256 195.993 365.554 195.993C388.851 195.993 407.738 177.106 407.738 153.809C407.738 130.511 388.851 111.625 365.554 111.625Z" fill="white"/>
    <mask id="path-7-inside-1" fill="white">
        <path d="M46.5769 6.16382C47.4213 5.69017 48.4513 5.69017 49.2957 6.16382L57.227 10.6129C57.6321 10.8401 58.0876 10.9622 58.552 10.968L67.6453 11.0806C68.6134 11.0926 69.5054 11.6076 69.9998 12.44L74.644 20.2587C74.8812 20.658 75.2146 20.9914 75.6139 21.2286L83.4326 25.8728C84.265 26.3672 84.78 27.2593 84.792 28.2273L84.9047 37.3206C84.9104 37.785 85.0325 38.2405 85.2597 38.6456L89.7088 46.5769C90.1824 47.4213 90.1824 48.4513 89.7088 49.2957L85.2597 57.227C85.0325 57.6321 84.9104 58.0876 84.9047 58.552L84.792 67.6453C84.78 68.6133 84.265 69.5054 83.4326 69.9998L75.6139 74.644C75.2146 74.8812 74.8812 75.2146 74.644 75.6139L69.9998 83.4326C69.5054 84.265 68.6134 84.78 67.6453 84.792L58.552 84.9047C58.0876 84.9104 57.6321 85.0325 57.227 85.2597L49.2957 89.7088C48.4513 90.1824 47.4213 90.1824 46.5769 89.7088L38.6456 85.2597C38.2405 85.0325 37.785 84.9104 37.3206 84.9047L28.2273 84.792C27.2593 84.78 26.3672 84.265 25.8728 83.4326L21.2286 75.6139C20.9915 75.2146 20.658 74.8812 20.2587 74.644L12.44 69.9998C11.6076 69.5054 11.0926 68.6134 11.0806 67.6453L10.968 58.552C10.9622 58.0876 10.8402 57.6321 10.6129 57.227L6.16383 49.2957C5.69018 48.4513 5.69018 47.4213 6.16383 46.5769L10.6129 38.6456C10.8402 38.2405 10.9622 37.785 10.968 37.3206L11.0806 28.2273C11.0926 27.2593 11.6076 26.3672 12.44 25.8728L20.2587 21.2286C20.658 20.9914 20.9915 20.658 21.2286 20.2587L25.8728 12.44C26.3672 11.6076 27.2593 11.0926 28.2273 11.0806L37.3206 10.968C37.785 10.9622 38.2405 10.8401 38.6456 10.6129L46.5769 6.16382Z"/>
    </mask>
    <path d="M38.6456 10.6129L34.6818 3.54684L38.6456 10.6129ZM25.8728 12.44L18.9071 8.30242L25.8728 12.44ZM20.2587 21.2286L16.1211 14.2629L20.2587 21.2286ZM21.2286 20.2587L28.1944 24.3962L21.2286 20.2587ZM11.0806 28.2273L2.9793 28.127L11.0806 28.2273ZM12.44 25.8728L16.5775 32.8386L12.44 25.8728ZM10.6129 38.6456L3.54685 34.6818L10.6129 38.6456ZM10.968 37.3206L19.0693 37.421L10.968 37.3206ZM6.16383 49.2957L-0.902263 53.2594L6.16383 49.2957ZM6.16383 46.5769L13.2299 50.5407L6.16383 46.5769ZM10.968 58.552L19.0693 58.4517L10.968 58.552ZM10.6129 57.227L17.679 53.2633L10.6129 57.227ZM12.44 69.9998L8.30243 76.9656L12.44 69.9998ZM11.0806 67.6453L2.9793 67.7456L11.0806 67.6453ZM21.2286 75.6139L28.1944 71.4764L21.2286 75.6139ZM20.2587 74.644L24.3962 67.6782L20.2587 74.644ZM28.2273 84.792L28.127 92.8933L28.2273 84.792ZM25.8728 83.4326L18.9071 87.5702L25.8728 83.4326ZM38.6456 85.2597L42.6093 78.1936L38.6456 85.2597ZM37.3206 84.9047L37.2203 93.0059L37.3206 84.9047ZM49.2957 89.7088L45.3319 82.6427L49.2957 89.7088ZM46.5769 89.7088L50.5407 82.6427L46.5769 89.7088ZM58.552 84.9047L58.4517 76.8034L58.552 84.9047ZM57.227 85.2597L53.2633 78.1936L57.227 85.2597ZM69.9998 83.4326L76.9656 87.5702L69.9998 83.4326ZM67.6453 84.792L67.7456 92.8933L67.6453 84.792ZM75.6139 74.644L79.7515 81.6097L75.6139 74.644ZM74.644 75.6139L81.6097 79.7515L74.644 75.6139ZM84.792 67.6453L92.8933 67.7456L84.792 67.6453ZM83.4326 69.9998L87.5702 76.9656L83.4326 69.9998ZM85.2597 57.227L78.1936 53.2633L85.2597 57.227ZM84.9047 58.552L76.8034 58.4516L84.9047 58.552ZM89.7088 46.5769L96.7749 42.6132L89.7088 46.5769ZM89.7088 49.2957L82.6427 45.3319L89.7088 49.2957ZM84.9047 37.3206L93.006 37.2203L84.9047 37.3206ZM85.2597 38.6456L78.1936 42.6093L85.2597 38.6456ZM83.4326 25.8728L87.5702 18.9071L83.4326 25.8728ZM74.644 20.2587L67.6782 24.3962L74.644 20.2587ZM69.9998 12.44L76.9656 8.30242L69.9998 12.44ZM57.227 10.6129L61.1908 3.54684L57.227 10.6129ZM58.552 10.968L58.4517 19.0692L58.552 10.968ZM49.2957 6.16382L45.332 13.2299L49.2957 6.16382ZM46.5769 6.16382L50.5407 13.2299L46.5769 6.16382ZM45.332 13.2299L53.2633 17.679L61.1908 3.54684L53.2594 -0.902269L45.332 13.2299ZM58.4517 19.0692L67.5449 19.1819L67.7456 2.97929L58.6523 2.86667L58.4517 19.0692ZM63.0341 16.5775L67.6782 24.3962L81.6097 16.1211L76.9656 8.30242L63.0341 16.5775ZM71.4764 28.1944L79.2951 32.8386L87.5702 18.9071L79.7515 14.2629L71.4764 28.1944ZM76.6907 28.3277L76.8034 37.421L93.006 37.2203L92.8933 28.127L76.6907 28.3277ZM78.1936 42.6093L82.6427 50.5407L96.7749 42.6132L92.3258 34.6818L78.1936 42.6093ZM82.6427 45.3319L78.1936 53.2633L92.3258 61.1908L96.7749 53.2594L82.6427 45.3319ZM76.8034 58.4516L76.6907 67.5449L92.8933 67.7456L93.006 58.6523L76.8034 58.4516ZM79.2951 63.0341L71.4764 67.6782L79.7515 81.6097L87.5702 76.9656L79.2951 63.0341ZM67.6782 71.4764L63.0341 79.2951L76.9656 87.5702L81.6097 79.7515L67.6782 71.4764ZM67.5449 76.6907L58.4517 76.8034L58.6523 93.0059L67.7456 92.8933L67.5449 76.6907ZM53.2633 78.1936L45.3319 82.6427L53.2594 96.7749L61.1908 92.3258L53.2633 78.1936ZM50.5407 82.6427L42.6093 78.1936L34.6818 92.3258L42.6132 96.7749L50.5407 82.6427ZM37.421 76.8034L28.3277 76.6907L28.127 92.8933L37.2203 93.0059L37.421 76.8034ZM32.8386 79.2951L28.1944 71.4764L14.2629 79.7515L18.9071 87.5702L32.8386 79.2951ZM24.3962 67.6782L16.5775 63.034L8.30243 76.9656L16.1211 81.6097L24.3962 67.6782ZM19.1819 67.5449L19.0693 58.4517L2.86667 58.6523L2.9793 67.7456L19.1819 67.5449ZM17.679 53.2633L13.2299 45.3319L-0.902263 53.2594L3.54684 61.1908L17.679 53.2633ZM13.2299 50.5407L17.679 42.6093L3.54685 34.6818L-0.902262 42.6132L13.2299 50.5407ZM19.0693 37.421L19.1819 28.3277L2.9793 28.127L2.86667 37.2203L19.0693 37.421ZM16.5775 32.8386L24.3962 28.1944L16.1211 14.2629L8.30243 18.9071L16.5775 32.8386ZM28.1944 24.3962L32.8386 16.5775L18.9071 8.30242L14.2629 16.1211L28.1944 24.3962ZM28.3277 19.1819L37.421 19.0692L37.2203 2.86667L28.127 2.97929L28.3277 19.1819ZM42.6093 17.679L50.5407 13.2299L42.6132 -0.902271L34.6818 3.54684L42.6093 17.679ZM37.421 19.0692C39.2394 19.0467 41.0232 18.5688 42.6093 17.679L34.6818 3.54684C35.4579 3.11153 36.3306 2.87769 37.2203 2.86667L37.421 19.0692ZM32.8386 16.5775C31.8913 18.1722 30.1823 19.1589 28.3277 19.1819L28.127 2.97929C24.3362 3.02625 20.8431 5.04296 18.9071 8.30242L32.8386 16.5775ZM24.3962 28.1944C25.9598 27.2656 27.2656 25.9598 28.1944 24.3962L14.2629 16.1211C14.7173 15.3561 15.3562 14.7173 16.1211 14.2629L24.3962 28.1944ZM19.1819 28.3277C19.1589 30.1823 18.1722 31.8913 16.5775 32.8386L8.30243 18.9071C5.04297 20.8431 3.02625 24.3362 2.9793 28.127L19.1819 28.3277ZM17.679 42.6093C18.5688 41.0232 19.0467 39.2394 19.0693 37.421L2.86667 37.2203C2.87769 36.3306 3.11154 35.4578 3.54685 34.6818L17.679 42.6093ZM13.2299 45.3319C14.1374 46.9496 14.1374 48.923 13.2299 50.5407L-0.902262 42.6132C-2.757 45.9196 -2.75701 49.953 -0.902263 53.2594L13.2299 45.3319ZM19.0693 58.4517C19.0467 56.6332 18.5688 54.8494 17.679 53.2633L3.54684 61.1908C3.11154 60.4148 2.87769 59.542 2.86667 58.6523L19.0693 58.4517ZM16.5775 63.034C18.1722 63.9813 19.1589 65.6903 19.1819 67.5449L2.9793 67.7456C3.02625 71.5364 5.04297 75.0295 8.30243 76.9656L16.5775 63.034ZM28.1944 71.4764C27.2656 69.9128 25.9598 68.607 24.3962 67.6782L16.1211 81.6097C15.3562 81.1553 14.7173 80.5165 14.2629 79.7515L28.1944 71.4764ZM28.3277 76.6907C30.1823 76.7137 31.8913 77.7004 32.8386 79.2951L18.9071 87.5702C20.8431 90.8297 24.3362 92.8464 28.127 92.8933L28.3277 76.6907ZM42.6093 78.1936C41.0232 77.3039 39.2394 76.8259 37.421 76.8034L37.2203 93.0059C36.3306 92.9949 35.4579 92.7611 34.6818 92.3258L42.6093 78.1936ZM45.3319 82.6427C46.9496 81.7353 48.923 81.7353 50.5407 82.6427L42.6132 96.7749C45.9196 98.6296 49.953 98.6296 53.2594 96.7749L45.3319 82.6427ZM58.4517 76.8034C56.6332 76.8259 54.8494 77.3039 53.2633 78.1936L61.1908 92.3258C60.4148 92.7611 59.542 92.9949 58.6523 93.0059L58.4517 76.8034ZM63.0341 79.2951C63.9813 77.7004 65.6903 76.7137 67.5449 76.6907L67.7456 92.8933C71.5364 92.8464 75.0295 90.8297 76.9656 87.5702L63.0341 79.2951ZM71.4764 67.6782C69.9128 68.607 68.607 69.9128 67.6782 71.4764L81.6097 79.7515C81.1554 80.5165 80.5165 81.1553 79.7515 81.6097L71.4764 67.6782ZM76.6907 67.5449C76.7137 65.6903 77.7004 63.9813 79.2951 63.0341L87.5702 76.9656C90.8297 75.0295 92.8464 71.5364 92.8933 67.7456L76.6907 67.5449ZM78.1936 53.2633C77.3039 54.8494 76.8259 56.6332 76.8034 58.4516L93.006 58.6523C92.9949 59.542 92.7611 60.4148 92.3258 61.1908L78.1936 53.2633ZM82.6427 50.5407C81.7353 48.923 81.7353 46.9496 82.6427 45.3319L96.7749 53.2594C98.6296 49.953 98.6296 45.9196 96.7749 42.6132L82.6427 50.5407ZM76.8034 37.421C76.8259 39.2394 77.3039 41.0232 78.1936 42.6093L92.3258 34.6818C92.7611 35.4578 92.9949 36.3306 93.006 37.2203L76.8034 37.421ZM79.2951 32.8386C77.7004 31.8913 76.7137 30.1823 76.6907 28.3277L92.8933 28.127C92.8464 24.3362 90.8296 20.8431 87.5702 18.9071L79.2951 32.8386ZM67.6782 24.3962C68.607 25.9598 69.9128 27.2656 71.4764 28.1944L79.7515 14.2629C80.5165 14.7173 81.1554 15.3561 81.6097 16.1211L67.6782 24.3962ZM67.5449 19.1819C65.6903 19.1589 63.9813 18.1722 63.0341 16.5775L76.9656 8.30242C75.0295 5.04296 71.5364 3.02625 67.7456 2.97929L67.5449 19.1819ZM53.2633 17.679C54.8494 18.5688 56.6332 19.0467 58.4517 19.0692L58.6523 2.86667C59.542 2.87769 60.4148 3.11153 61.1908 3.54684L53.2633 17.679ZM53.2594 -0.902269C49.953 -2.75701 45.9196 -2.75701 42.6132 -0.902271L50.5407 13.2299C48.923 14.1374 46.9496 14.1374 45.332 13.2299L53.2594 -0.902269Z" fill="white" mask="url(#path-7-inside-1)"/>
    <path fill-rule="evenodd" clip-rule="evenodd" d="M217.498 47.9363C217.498 24.6387 236.384 5.75233 259.682 5.75233C282.979 5.75233 301.865 24.6387 301.865 47.9363C301.865 71.2338 282.979 90.1202 259.682 90.1202C236.384 90.1202 217.498 71.2338 217.498 47.9363ZM260.725 27.0064C272.826 27.0064 282.637 36.8167 282.637 48.9184V51.0052C282.637 63.1069 272.826 72.9172 260.725 72.9172H258.638C246.536 72.9172 236.726 63.1069 236.726 51.0052V48.9183L236.726 48.8657V32.2235C236.726 29.3422 239.062 27.0064 241.943 27.0064H258.623L258.638 27.0064H260.725Z" fill="white"/>
    <rect x="38.3882" y="104.158" width="83.7197" height="56.7134" rx="28.3567" transform="rotate(45 38.3882 104.158)" fill="white"/>
    <circle cx="259.681" cy="153.809" r="38.349" stroke="white" stroke-width="7.66981"/>
    <path d="M255.605 133.188C257.417 130.05 261.946 130.05 263.758 133.188L272.837 148.914L281.917 164.64C283.729 167.778 281.464 171.701 277.84 171.701H259.681H241.523C237.899 171.701 235.634 167.778 237.446 164.64L246.526 148.914L255.605 133.188Z" fill="white"/>
</svg>
